Trocchi.ufo
<glyph name="A" format="1">
  <advance width="824"/>
  <unicode hex="0041"/>
  <outline>
    <contour>
      <point x="558" y="324" type="line"/>
      <point x="264" y="324" type="line"/>
      <point x="264" y="248" type="line"/>
      <point x="558" y="248" type="line"/>
    </contour>
    <contour>
      <point x="356" y="0" type="line"/>
      <point x="356" y="87" type="line"/>
      <point x="263" y="87" type="line"/>
      <point x="418" y="605" type="line"/>
      <point x="567" y="87" type="line"/>
      <point x="458" y="87" type="line"/>
      <point x="458" y="0" type="line"/>
      <point x="814" y="0" type="line"/>
      <point x="814" y="87" type="line"/>
      <point x="712" y="87" type="line"/>
      <point x="505" y="722" type="line"/>
      <point x="344" y="722" type="line"/>
      <point x="344" y="722"/>
      <point x="118" y="87"/>
      <point x="118" y="87" type="curve"/>
      <point x="10" y="87" type="line"/>
      <point x="10" y="0" type="line"/>
    </contour>
  </outline>
</glyph>
<glyph name="B" format="1">
  <advance width="732"/>
  <unicode hex="0042"/>
  <outline>
    <contour>
      <point x="389" y="0" type="curve" smooth="yes"/>
      <point x="28" y="0" type="line"/>
      <point x="28" y="88" type="line"/>
      <point x="147" y="88" type="line"/>
      <point x="147" y="632" type="line"/>
      <point x="28" y="632" type="line"/>
      <point x="28" y="722" type="line"/>
      <point x="389" y="722" type="line" smooth="yes"/>
      <point x="502" y="722"/>
      <point x="689" y="693"/>
      <point x="675" y="523" type="curve" smooth="yes"/>
      <point x="669" y="450"/>
      <point x="621" y="408"/>
      <point x="540" y="385" type="curve"/>
      <point x="643" y="358"/>
      <point x="715" y="305"/>
      <point x="715" y="201" type="curve" smooth="yes"/>
      <point x="715" y="10"/>
      <point x="518" y="0"/>
    </contour>
    <contour>
      <point x="292" y="325" type="curve"/>
      <point x="292" y="88" type="line"/>
      <point x="438" y="88"/>
      <point x="560" y="73"/>
      <point x="560" y="205" type="curve" smooth="yes"/>
      <point x="560" y="309"/>
      <point x="470" y="326"/>
      <point x="371" y="326" type="curve" smooth="yes"/>
      <point x="345" y="326"/>
      <point x="318" y="325"/>
    </contour>
    <contour>
      <point x="292" y="632" type="curve"/>
      <point x="292" y="426" type="line"/>
      <point x="371" y="426" type="line" smooth="yes"/>
      <point x="450" y="426"/>
      <point x="520" y="433"/>
      <point x="520" y="519" type="curve" smooth="yes"/>
      <point x="520" y="641"/>
      <point x="417" y="631"/>
    </contour>
  </outline>
</glyph>
<glyph name="C" format="1">
  <advance width="706"/>
  <unicode hex="0043"/>
  <outline>
    <contour>
      <point x="15" y="369" type="curve" smooth="yes"/>
      <point x="15" y="557"/>
      <point x="139" y="737"/>
      <point x="341" y="737" type="curve" smooth="yes"/>
      <point x="435" y="737"/>
      <point x="516" y="699"/>
      <point x="587" y="628" type="curve"/>
      <point x="617" y="722" type="line"/>
      <point x="685" y="722" type="line"/>
      <point x="685" y="388" type="line"/>
      <point x="608" y="388" type="line"/>
      <point x="587" y="513"/>
      <point x="531" y="647"/>
      <point x="380" y="647" type="curve" smooth="yes"/>
      <point x="219" y="647"/>
      <point x="180" y="502"/>
      <point x="180" y="367" type="curve" smooth="yes"/>
      <point x="180" y="226"/>
      <point x="224" y="69"/>
      <point x="392" y="69" type="curve" smooth="yes"/>
      <point x="537" y="69"/>
      <point x="587" y="188"/>
      <point x="608" y="311" type="curve"/>
      <point x="691" y="311" type="line"/>
      <point x="687" y="104"/>
      <point x="548" y="-14"/>
      <point x="362" y="-14" type="curve" smooth="yes"/>
      <point x="145" y="-14"/>
      <point x="15" y="160"/>
    </contour>
  </outline>
</glyph>
<glyph name="D" format="1">
  <advance width="827"/>
  <unicode hex="0044"/>
  <outline>
    <contour>
      <point x="25" y="632" type="line"/>
      <point x="144" y="632" type="line"/>
      <point x="144" y="87" type="line"/>
      <point x="25" y="87" type="line"/>
      <point x="25" y="0" type="line"/>
      <point x="314" y="0" type="line" smooth="yes"/>
      <point x="590" y="0"/>
      <point x="787" y="66"/>
      <point x="787" y="357" type="curve" smooth="yes"/>
      <point x="787" y="702"/>
      <point x="527" y="722"/>
      <point x="263" y="722" type="curve" smooth="yes"/>
      <point x="25" y="722" type="line"/>
    </contour>
    <contour>
      <point x="632" y="114"/>
      <point x="514" y="87"/>
      <point x="289" y="87" type="curve" smooth="yes"/>
      <point x="289" y="631" type="line" smooth="yes"/>
      <point x="508" y="631"/>
      <point x="632" y="606"/>
      <point x="632" y="350" type="curve" smooth="yes"/>
    </contour>
  </outline>
</glyph>
<glyph name="E" format="1">
  <advance width="779"/>
  <unicode hex="0045"/>
  <outline>
    <contour>
      <point x="28" y="0" type="line"/>
      <point x="28" y="87" type="line"/>
      <point x="147" y="87" type="line"/>
      <point x="147" y="632" type="line"/>
      <point x="28" y="632" type="line"/>
      <point x="28" y="722" type="line"/>
      <point x="736" y="722" type="line"/>
      <point x="736" y="439" type="line"/>
      <point x="616" y="439" type="line"/>
      <point x="616" y="632" type="line"/>
      <point x="292" y="632" type="line"/>
      <point x="292" y="407" type="line"/>
      <point x="437" y="407" type="line"/>
      <point x="437" y="507" type="line"/>
      <point x="522" y="507" type="line"/>
      <point x="522" y="207" type="line"/>
      <point x="437" y="207" type="line"/>
      <point x="437" y="331" type="line"/>
      <point x="292" y="331" type="line"/>
      <point x="292" y="87" type="line"/>
      <point x="616" y="87" type="line"/>
      <point x="616" y="279" type="line"/>
      <point x="736" y="279" type="line"/>
      <point x="736" y="0" type="line"/>
    </contour>
  </outline>
</glyph>
<glyph name="G" format="1">
  <advance width="851"/>
  <unicode hex="0047"/>
  <outline>
    <contour>
      <point x="155" y="-10"/>
      <point x="40" y="175"/>
      <point x="40" y="360" type="curve" smooth="yes"/>
      <point x="40" y="548"/>
      <point x="155" y="737"/>
      <point x="390" y="737" type="curve" smooth="yes"/>
      <point x="465" y="737"/>
      <point x="553" y="704"/>
      <point x="605" y="618" type="curve"/>
      <point x="631" y="722" type="line"/>
      <point x="697" y="722" type="line"/>
      <point x="697" y="429" type="line"/>
      <point x="612" y="429" type="line"/>
      <point x="587" y="564"/>
      <point x="520" y="644"/>
      <point x="405" y="644" type="curve" smooth="yes"/>
      <point x="254" y="644"/>
      <point x="205" y="491"/>
      <point x="205" y="358" type="curve" smooth="yes"/>
      <point x="205.0" y="203.10795121"/>
      <point x="281" y="90"/>
      <point x="425" y="90" type="curve" smooth="yes"/>
      <point x="505.0" y="90.0"/>
      <point x="562" y="133"/>
      <point x="562" y="218" type="curve" smooth="yes"/>
      <point x="562" y="287" type="line"/>
      <point x="431" y="287" type="line"/>
      <point x="431" y="361" type="line"/>
      <point x="824" y="361" type="line"/>
      <point x="824" y="287" type="line"/>
      <point x="712" y="287" type="line"/>
      <point x="712" y="6" type="line"/>
      <point x="653" y="6" type="line"/>
      <point x="629" y="103" type="line"/>
      <point x="583" y="12"/>
      <point x="468" y="-12"/>
      <point x="387" y="-13" type="curve"/>
    </contour>
  </outline>
</glyph>
<glyph name="H" format="1">
  <advance width="839"/>
  <unicode hex="0048"/>
  <outline>
    <contour>
      <point x="824" y="87" type="line"/>
      <point x="824" y="0" type="line"/>
      <point x="447" y="0" type="line"/>
      <point x="447" y="87" type="line"/>
      <point x="560" y="87" type="line"/>
      <point x="560" y="331" type="line"/>
      <point x="279" y="331" type="line"/>
      <point x="279" y="87" type="line"/>
      <point x="391" y="87" type="line"/>
      <point x="391" y="0" type="line"/>
      <point x="15" y="0" type="line"/>
      <point x="15" y="87" type="line"/>
      <point x="134" y="87" type="line"/>
      <point x="134" y="632" type="line"/>
      <point x="15" y="632" type="line"/>
      <point x="15" y="722" type="line"/>
      <point x="391" y="722" type="line"/>
      <point x="391" y="632" type="line"/>
      <point x="279" y="632" type="line"/>
      <point x="279" y="407" type="line"/>
      <point x="560" y="407" type="line"/>
      <point x="560" y="632" type="line"/>
      <point x="447" y="632" type="line"/>
      <point x="447" y="722" type="line"/>
      <point x="824" y="722" type="line"/>
      <point x="824" y="632" type="line"/>
      <point x="705" y="632" type="line"/>
      <point x="705" y="87" type="line"/>
    </contour>
  </outline>
</glyph>
<glyph name="I" format="1">
  <advance width="406"/>
  <unicode hex="0049"/>
  <outline>
    <contour>
      <point x="279" y="87" type="line"/>
      <point x="391" y="87" type="line"/>
      <point x="391" y="0" type="line"/>
      <point x="15" y="0" type="line"/>
      <point x="15" y="87" type="line"/>
      <point x="134" y="87" type="line"/>
      <point x="134" y="632" type="line"/>
      <point x="15" y="632" type="line"/>
      <point x="15" y="722" type="line"/>
      <point x="391" y="722" type="line"/>
      <point x="391" y="632" type="line"/>
      <point x="279" y="632" type="line"/>
    </contour>
  </outline>
</glyph>
<glyph name="J" format="1">
  <advance width="655"/>
  <unicode hex="004A"/>
  <outline>
    <contour>
      <point x="15" y="184" type="curve" smooth="yes"/>
      <point x="15" y="194"/>
      <point x="16" y="244"/>
      <point x="17" y="254" type="curve"/>
      <point x="32" y="300"/>
      <point x="66" y="300"/>
      <point x="102" y="300" type="curve" smooth="yes"/>
      <point x="161" y="300"/>
      <point x="200" y="260"/>
      <point x="200" y="198" type="curve" smooth="yes"/>
      <point x="200" y="148"/>
      <point x="143" y="145"/>
      <point x="143" y="106" type="curve" smooth="yes"/>
      <point x="143" y="79"/>
      <point x="188" y="70"/>
      <point x="208" y="70" type="curve" smooth="yes"/>
      <point x="387" y="70"/>
      <point x="328" y="404"/>
      <point x="328" y="516" type="curve" smooth="yes"/>
      <point x="328" y="650" type="line" smooth="yes"/>
      <point x="328" y="722"/>
      <point x="233" y="718"/>
      <point x="186" y="721" type="curve"/>
      <point x="186" y="806" type="line"/>
      <point x="610" y="806" type="line" smooth="yes"/>
      <point x="644" y="806"/>
      <point x="640" y="787"/>
      <point x="640" y="765" type="curve" smooth="yes"/>
      <point x="640" y="672"/>
      <point x="522" y="754"/>
      <point x="497" y="678" type="curve"/>
      <point x="486" y="499"/>
      <point x="485" y="320"/>
      <point x="469" y="141" type="curve"/>
      <point x="424" y="31"/>
      <point x="332" y="-14"/>
      <point x="215" y="-14" type="curve" smooth="yes"/>
      <point x="92" y="-14"/>
      <point x="15" y="68"/>
    </contour>
  </outline>
</glyph>
<glyph name="K" format="1">
  <advance width="921"/>
  <unicode hex="004B"/>
  <outline>
    <contour>
      <point x="481" y="0" type="curve"/>
      <point x="480" y="5"/>
      <point x="476" y="30"/>
      <point x="476" y="35" type="curve" smooth="yes"/>
      <point x="476" y="110"/>
      <point x="554" y="52"/>
      <point x="566" y="113" type="curve" smooth="yes"/>
      <point x="566" y="115"/>
      <point x="556" y="145"/>
      <point x="552" y="155" type="curve" smooth="yes"/>
      <point x="524" y="215"/>
      <point x="455" y="353"/>
      <point x="453" y="353" type="curve" smooth="yes"/>
      <point x="425" y="353" type="line" smooth="yes"/>
      <point x="417" y="353"/>
      <point x="358" y="294"/>
      <point x="340" y="268" type="curve" smooth="yes"/>
      <point x="324" y="246"/>
      <point x="325" y="195"/>
      <point x="325" y="168" type="curve" smooth="yes"/>
      <point x="325" y="44"/>
      <point x="450" y="120"/>
      <point x="450" y="0" type="curve"/>
      <point x="15" y="0" type="line"/>
      <point x="15" y="71" type="line"/>
      <point x="88" y="76"/>
      <point x="170" y="78"/>
      <point x="170" y="170" type="curve" smooth="yes"/>
      <point x="170" y="678" type="line" smooth="yes"/>
      <point x="170" y="689"/>
      <point x="128" y="707"/>
      <point x="128" y="707" type="curve"/>
      <point x="113" y="710"/>
      <point x="44" y="720"/>
      <point x="29" y="721" type="curve"/>
      <point x="29" y="791" type="line"/>
      <point x="411" y="791" type="line" smooth="yes"/>
      <point x="437" y="791"/>
      <point x="442" y="756"/>
      <point x="442" y="740" type="curve" smooth="yes"/>
      <point x="442" y="688"/>
      <point x="340" y="725"/>
      <point x="340" y="678" type="curve" smooth="yes"/>
      <point x="340" y="410" type="line"/>
      <point x="347" y="413"/>
      <point x="377" y="433"/>
      <point x="382" y="438" type="curve" smooth="yes"/>
      <point x="413" y="467"/>
      <point x="551" y="605"/>
      <point x="580" y="636" type="curve"/>
      <point x="586" y="638"/>
      <point x="596" y="658"/>
      <point x="594" y="664" type="curve" smooth="yes"/>
      <point x="574" y="747"/>
      <point x="473" y="672"/>
      <point x="473" y="796" type="curve"/>
      <point x="517" y="796"/>
      <point x="748" y="793"/>
      <point x="792" y="791" type="curve" smooth="yes"/>
      <point x="809" y="791"/>
      <point x="889" y="781"/>
      <point x="905" y="777" type="curve"/>
      <point x="906" y="774"/>
      <point x="906" y="759"/>
      <point x="906" y="756" type="curve" smooth="yes"/>
      <point x="906" y="736"/>
      <point x="906" y="724"/>
      <point x="891" y="707" type="curve"/>
      <point x="876" y="703"/>
      <point x="807" y="683"/>
      <point x="792" y="678" type="curve" smooth="yes"/>
      <point x="786" y="676"/>
      <point x="766" y="666"/>
      <point x="764" y="664" type="curve" smooth="yes"/>
      <point x="580" y="495" type="line" smooth="yes"/>
      <point x="580" y="494"/>
      <point x="579" y="486"/>
      <point x="579" y="483" type="curve" smooth="yes"/>
      <point x="579" y="461"/>
      <point x="584" y="444"/>
      <point x="594" y="424" type="curve" smooth="yes"/>
      <point x="619" y="375"/>
      <point x="738" y="147"/>
      <point x="764" y="99" type="curve"/>
      <point x="848" y="48"/>
      <point x="897" y="109"/>
      <point x="897" y="-17" type="curve"/>
      <point x="758" y="-17"/>
      <point x="620" y="-11"/>
    </contour>
  </outline>
</glyph>
<glyph name="L" format="1">
  <advance width="704"/>
  <unicode hex="004C"/>
  <outline>
    <contour>
      <point x="613" y="0"/>
      <point x="655" y="-1"/>
      <point x="655" y="0" type="curve" smooth="yes"/>
      <point x="670" y="325" type="line"/>
      <point x="601" y="325" type="line"/>
      <point x="549" y="137" type="line" smooth="yes"/>
      <point x="539" y="101"/>
      <point x="520" y="87"/>
      <point x="474" y="87" type="curve" smooth="yes"/>
      <point x="292" y="87" type="line"/>
      <point x="292" y="632" type="line"/>
      <point x="404" y="632" type="line"/>
      <point x="404" y="722" type="line"/>
      <point x="28" y="722" type="line"/>
      <point x="28" y="632" type="line"/>
      <point x="147" y="632" type="line"/>
      <point x="147" y="87" type="line"/>
      <point x="28" y="87" type="line"/>
      <point x="28" y="0" type="line"/>
      <point x="546" y="0" type="line"/>
    </contour>
  </outline>
</glyph>
<glyph name="M" format="1">
  <advance width="1043"/>
  <unicode hex="004D"/>
  <outline>
    <contour>
      <point x="24" y="0" type="line"/>
      <point x="24" y="87" type="line"/>
      <point x="152" y="87" type="line"/>
      <point x="152" y="632" type="line"/>
      <point x="15" y="632" type="line"/>
      <point x="15" y="722" type="line"/>
      <point x="369" y="722" type="line"/>
      <point x="518" y="323" type="line"/>
      <point x="528" y="289" type="line"/>
      <point x="535" y="315" type="line"/>
      <point x="671" y="722" type="line"/>
      <point x="1021" y="722" type="line"/>
      <point x="1021" y="632" type="line"/>
      <point x="884" y="632" type="line"/>
      <point x="884" y="87" type="line"/>
      <point x="1028" y="87" type="line"/>
      <point x="1028" y="0" type="line"/>
      <point x="633" y="0" type="line"/>
      <point x="633" y="87" type="line"/>
      <point x="740" y="87" type="line"/>
      <point x="740" y="618" type="line"/>
      <point x="550" y="26" type="line" smooth="yes"/>
      <point x="542" y="1"/>
      <point x="524" y="0"/>
      <point x="512" y="0" type="curve" smooth="yes"/>
      <point x="496" y="0"/>
      <point x="483" y="4"/>
      <point x="476" y="23" type="curve" smooth="yes"/>
      <point x="280" y="570" type="line"/>
      <point x="262" y="626" type="line"/>
      <point x="262" y="87" type="line"/>
      <point x="385" y="87" type="line"/>
      <point x="385" y="0" type="line"/>
    </contour>
  </outline>
</glyph>
<glyph name="N" format="1">
  <advance width="809"/>
  <unicode hex="004E"/>
  <outline>
    <contour>
      <point x="27" y="89" type="curve" smooth="yes"/>
      <point x="27" y="125"/>
      <point x="142" y="114"/>
      <point x="142" y="140" type="curve" smooth="yes"/>
      <point x="142" y="626" type="line" smooth="yes"/>
      <point x="142" y="636"/>
      <point x="104" y="652"/>
      <point x="104" y="652" type="curve"/>
      <point x="91" y="656"/>
      <point x="28" y="674"/>
      <point x="15" y="677" type="curve"/>
      <point x="15" y="741" type="line"/>
      <point x="297" y="741" type="line"/>
      <point x="577" y="307" type="line"/>
      <point x="590" y="307" type="line"/>
      <point x="590" y="600" type="line" smooth="yes"/>
      <point x="590" y="699"/>
      <point x="457" y="630"/>
      <point x="457" y="741" type="curve"/>
      <point x="794" y="741" type="line"/>
      <point x="794" y="677" type="line"/>
      <point x="779" y="674"/>
      <point x="679" y="663"/>
      <point x="679" y="613" type="curve" smooth="yes"/>
      <point x="679" y="38" type="line"/>
      <point x="564" y="38" type="line"/>
      <point x="264" y="530" type="line"/>
      <point x="245" y="511" type="line"/>
      <point x="245" y="191" type="line" smooth="yes"/>
      <point x="245" y="126"/>
      <point x="325" y="109"/>
      <point x="373" y="102" type="curve"/>
      <point x="373" y="98"/>
      <point x="374" y="80"/>
      <point x="374" y="76" type="curve" smooth="yes"/>
      <point x="374" y="72"/>
      <point x="378" y="38"/>
      <point x="360" y="38" type="curve" smooth="yes"/>
      <point x="40" y="38" type="line" smooth="yes"/>
      <point x="36" y="38"/>
      <point x="27" y="74"/>
    </contour>
    <contour>
      <point x="245" y="553" type="curve" smooth="yes"/>
      <point x="242" y="553"/>
      <point x="242" y="546"/>
      <point x="245" y="546" type="curve" smooth="yes"/>
      <point x="248" y="546"/>
      <point x="248" y="553"/>
    </contour>
  </outline>
</glyph>
<glyph name="O" format="1">
  <advance width="790"/>
  <unicode hex="004F"/>
  <outline>
    <contour>
      <point x="395" y="642" type="curve"/>
      <point x="271" y="642"/>
      <point x="209" y="502"/>
      <point x="209" y="362" type="curve" smooth="yes"/>
      <point x="209" y="222"/>
      <point x="271" y="82"/>
      <point x="395" y="82" type="curve" smooth="yes"/>
      <point x="519" y="82"/>
      <point x="581" y="220"/>
      <point x="581" y="360" type="curve" smooth="yes"/>
      <point x="581" y="499"/>
      <point x="519" y="639"/>
    </contour>
    <contour>
      <point x="395" y="-13" type="curve" smooth="yes"/>
      <point x="161" y="-13"/>
      <point x="45" y="174"/>
      <point x="45" y="362" type="curve" smooth="yes"/>
      <point x="45" y="549"/>
      <point x="161" y="737"/>
      <point x="395" y="737" type="curve" smooth="yes"/>
      <point x="628" y="737"/>
      <point x="745" y="549"/>
      <point x="745" y="362" type="curve" smooth="yes"/>
      <point x="745" y="174"/>
      <point x="628" y="-13"/>
    </contour>
  </outline>
</glyph>
<glyph name="P" format="1">
  <advance width="687"/>
  <unicode hex="0050"/>
  <outline>
    <contour>
      <point x="15" y="722" type="line"/>
      <point x="376" y="722" type="line" smooth="yes"/>
      <point x="493" y="722"/>
      <point x="672" y="704"/>
      <point x="672" y="513" type="curve" smooth="yes"/>
      <point x="672" y="321"/>
      <point x="496" y="307"/>
      <point x="329" y="307" type="curve" smooth="yes"/>
      <point x="279" y="307" type="line"/>
      <point x="279" y="87" type="line"/>
      <point x="401" y="87" type="line"/>
      <point x="401" y="0" type="line"/>
      <point x="15" y="0" type="line"/>
      <point x="15" y="87" type="line"/>
      <point x="134" y="87" type="line"/>
      <point x="134" y="632" type="line"/>
      <point x="15" y="632" type="line"/>
    </contour>
    <contour>
      <point x="279" y="632" type="curve"/>
      <point x="279" y="387" type="line"/>
      <point x="299" y="387"/>
      <point x="318" y="386"/>
      <point x="338" y="386" type="curve" smooth="yes"/>
      <point x="432" y="386"/>
      <point x="517" y="396"/>
      <point x="517" y="509" type="curve" smooth="yes"/>
      <point x="517" y="642"/>
      <point x="410" y="631"/>
    </contour>
  </outline>
</glyph>
<glyph name="Q" format="1">
  <advance width="828"/>
  <unicode hex="0051"/>
  <outline>
    <contour>
      <point x="502" y="13" type="curve"/>
      <point x="444" y="-14"/>
      <point x="413" y="-15"/>
      <point x="355" y="-15" type="curve" smooth="yes"/>
      <point x="146" y="-15"/>
      <point x="15" y="157"/>
      <point x="15" y="355" type="curve" smooth="yes"/>
      <point x="15" y="551"/>
      <point x="162" y="717"/>
      <point x="361" y="717" type="curve" smooth="yes"/>
      <point x="553" y="717"/>
      <point x="695" y="561"/>
      <point x="695" y="374" type="curve" smooth="yes"/>
      <point x="695" y="275"/>
      <point x="616" y="158"/>
      <point x="616" y="108" type="curve" smooth="yes"/>
      <point x="616" y="83"/>
      <point x="660" y="63"/>
      <point x="682" y="63" type="curve" smooth="yes"/>
      <point x="766" y="63"/>
      <point x="684" y="184"/>
      <point x="813" y="184" type="curve"/>
      <point x="813" y="86"/>
      <point x="792" y="-78"/>
      <point x="660" y="-78" type="curve" smooth="yes"/>
      <point x="596" y="-78"/>
      <point x="545" y="-30"/>
    </contour>
    <contour>
      <point x="257" y="130" type="curve" smooth="yes"/>
      <point x="257" y="72"/>
      <point x="307" y="75"/>
      <point x="355" y="75" type="curve" smooth="yes"/>
      <point x="369" y="75"/>
      <point x="451" y="69"/>
      <point x="451" y="108" type="curve" smooth="yes"/>
      <point x="451" y="160"/>
      <point x="383" y="205"/>
      <point x="335" y="205" type="curve" smooth="yes"/>
      <point x="296" y="205"/>
      <point x="257" y="168"/>
    </contour>
    <contour>
      <point x="355" y="627" type="curve" smooth="yes"/>
      <point x="267" y="627"/>
      <point x="182" y="576"/>
      <point x="182" y="473" type="curve" smooth="yes"/>
      <point x="182" y="213" type="line"/>
      <point x="236" y="213"/>
      <point x="269" y="295"/>
      <point x="334" y="295" type="curve" smooth="yes"/>
      <point x="404" y="295"/>
      <point x="454" y="229"/>
      <point x="515" y="229" type="curve" smooth="yes"/>
      <point x="516" y="229"/>
      <point x="525" y="230"/>
      <point x="527" y="230" type="curve"/>
      <point x="533" y="273"/>
      <point x="540" y="320"/>
      <point x="540" y="365" type="curve" smooth="yes"/>
      <point x="540" y="493"/>
      <point x="500" y="627"/>
    </contour>
  </outline>
</glyph>
<glyph name="R" format="1">
  <advance width="803"/>
  <unicode hex="0052"/>
  <outline>
    <contour>
      <point x="285.188" y="151" type="line" smooth="yes"/>
      <point x="285.188" y="144"/>
      <point x="283.188" y="80"/>
      <point x="298.188" y="76" type="curve"/>
      <point x="426.188" y="51" type="line"/>
      <point x="426.188" y="51"/>
      <point x="428.188" y="37"/>
      <point x="428.188" y="31" type="curve" smooth="yes"/>
      <point x="428.188" y="28"/>
      <point x="432.188" y="-13"/>
      <point x="413.188" y="-13" type="curve" smooth="yes"/>
      <point x="30.1875" y="-13" type="line" smooth="yes"/>
      <point x="12.1875" y="-13"/>
      <point x="15.1875" y="23"/>
      <point x="15.1875" y="27" type="curve" smooth="yes"/>
      <point x="15.1875" y="105"/>
      <point x="134.188" y="23"/>
      <point x="145.188" y="102" type="curve"/>
      <point x="156.188" y="254"/>
      <point x="159.188" y="354"/>
      <point x="159.188" y="497" type="curve" smooth="yes"/>
      <point x="159.188" y="522"/>
      <point x="158.188" y="586"/>
      <point x="157.188" y="588" type="curve" smooth="yes"/>
      <point x="132.188" y="620" type="line"/>
      <point x="30.1875" y="620" type="line"/>
      <point x="30.1875" y="690" type="line"/>
      <point x="490.188" y="690" type="line" smooth="yes"/>
      <point x="595.188" y="690"/>
      <point x="696.188" y="609"/>
      <point x="696.188" y="501" type="curve" smooth="yes"/>
      <point x="696.188" y="368"/>
      <point x="585.188" y="380"/>
      <point x="541.188" y="307" type="curve"/>
      <point x="612.188" y="247"/>
      <point x="627.188" y="180"/>
      <point x="643.188" y="89" type="curve"/>
      <point x="651.188" y="77"/>
      <point x="660.188" y="63"/>
      <point x="675.188" y="63" type="curve" smooth="yes"/>
      <point x="750.188" y="63"/>
      <point x="685.188" y="193"/>
      <point x="788.188" y="193" type="curve"/>
      <point x="788.188" y="74"/>
      <point x="767.188" y="-26"/>
      <point x="630.188" y="-26" type="curve" smooth="yes"/>
      <point x="418.188" y="-26"/>
      <point x="533.188" y="294"/>
      <point x="439.188" y="294" type="curve" smooth="yes"/>
      <point x="298.188" y="294" type="line" smooth="yes"/>
      <point x="296.188" y="294"/>
      <point x="288.188" y="222"/>
      <point x="285.188" y="191" type="curve" smooth="yes"/>
    </contour>
    <contour>
      <point x="296.188" y="462" type="curve" smooth="yes"/>
      <point x="296.188" y="446"/>
      <point x="297.188" y="399"/>
      <point x="298.188" y="396" type="curve"/>
      <point x="311.188" y="383" type="line" smooth="yes"/>
      <point x="312.188" y="383"/>
      <point x="337.188" y="382"/>
      <point x="347.188" y="382" type="curve" smooth="yes"/>
      <point x="451.188" y="382"/>
      <point x="542.188" y="389"/>
      <point x="542.188" y="509" type="curve" smooth="yes"/>
      <point x="542.188" y="607"/>
      <point x="437.188" y="614"/>
      <point x="360.188" y="614" type="curve" smooth="yes"/>
      <point x="277.188" y="614"/>
      <point x="296.188" y="529"/>
    </contour>
  </outline>
</glyph>
<glyph name="S" format="1">
  <advance width="1058"/>
  <unicode hex="0053"/>
  <outline>
    <contour>
      <point x="394" y="99" type="curve" smooth="yes"/>
      <point x="381" y="99"/>
      <point x="361" y="4"/>
      <point x="354" y="4" type="curve" smooth="yes"/>
      <point x="286" y="4" type="line" smooth="yes"/>
      <point x="282" y="4"/>
      <point x="281" y="26"/>
      <point x="281" y="34" type="curve" smooth="yes"/>
      <point x="281" y="40" type="line" smooth="yes"/>
      <point x="282" y="75"/>
      <point x="286" y="236"/>
      <point x="286" y="271" type="curve"/>
      <point x="361" y="271" type="line"/>
      <point x="438" y="161" type="line" smooth="yes"/>
      <point x="478" y="104"/>
      <point x="567" y="87"/>
      <point x="632" y="87" type="curve" smooth="yes"/>
      <point x="681" y="87"/>
      <point x="742" y="106"/>
      <point x="742" y="166" type="curve" smooth="yes"/>
      <point x="742" y="217"/>
      <point x="685" y="247"/>
      <point x="642" y="255" type="curve" smooth="yes"/>
      <point x="433" y="297" type="line" smooth="yes"/>
      <point x="428" y="298"/>
      <point x="370" y="331"/>
      <point x="349" y="344" type="curve" smooth="yes"/>
      <point x="293" y="381"/>
      <point x="276" y="468"/>
      <point x="276" y="528" type="curve" smooth="yes"/>
      <point x="276" y="660"/>
      <point x="379" y="737"/>
      <point x="503" y="737" type="curve" smooth="yes"/>
      <point x="571" y="737"/>
      <point x="624" y="695"/>
      <point x="669" y="648" type="curve"/>
      <point x="671" y="647" type="line"/>
      <point x="677" y="647"/>
      <point x="677" y="653"/>
      <point x="679" y="658" type="curve" smooth="yes"/>
      <point x="683" y="669"/>
      <point x="701" y="721"/>
      <point x="705" y="731" type="curve"/>
      <point x="710" y="737" type="line"/>
      <point x="783" y="737" type="line"/>
      <point x="783" y="459" type="line"/>
      <point x="700" y="459" type="line"/>
      <point x="661" y="544"/>
      <point x="585" y="632"/>
      <point x="483" y="632" type="curve" smooth="yes"/>
      <point x="431" y="632"/>
      <point x="385" y="608"/>
      <point x="385" y="552" type="curve" smooth="yes"/>
      <point x="385" y="516"/>
      <point x="411" y="483"/>
      <point x="448" y="475" type="curve" smooth="yes"/>
      <point x="710" y="418" type="line" smooth="yes"/>
      <point x="802" y="397"/>
      <point x="862" y="300"/>
      <point x="862" y="211" type="curve" smooth="yes"/>
      <point x="862" y="74"/>
      <point x="768" y="-12"/>
      <point x="637" y="-12" type="curve" smooth="yes"/>
      <point x="571" y="-12"/>
      <point x="496" y="0"/>
      <point x="443" y="46" type="curve" smooth="yes"/>
      <point x="438" y="50"/>
      <point x="403" y="99"/>
    </contour>
  </outline>
</glyph>
<glyph name="T" format="1">
  <advance width="732"/>
  <unicode hex="0054"/>
  <outline>
    <contour>
      <point x="140" y="35" type="curve"/>
      <point x="140" y="112" type="line"/>
      <point x="279" y="112" type="line"/>
      <point x="279" y="676" type="line" smooth="yes"/>
      <point x="279" y="680"/>
      <point x="270" y="690"/>
      <point x="266" y="690" type="curve"/>
      <point x="264" y="691"/>
      <point x="233" y="692"/>
      <point x="222" y="692" type="curve" smooth="yes"/>
      <point x="108" y="692"/>
      <point x="82" y="553"/>
      <point x="56" y="467" type="curve"/>
      <point x="54" y="467"/>
      <point x="45" y="466"/>
      <point x="43" y="466" type="curve" smooth="yes"/>
      <point x="34" y="466"/>
      <point x="15" y="466"/>
      <point x="15" y="481" type="curve" smooth="yes"/>
      <point x="15" y="774" type="line"/>
      <point x="698" y="774" type="line" smooth="yes"/>
      <point x="701" y="774"/>
      <point x="711" y="725"/>
      <point x="712" y="704" type="curve" smooth="yes"/>
      <point x="713" y="669"/>
      <point x="717" y="503"/>
      <point x="717" y="467" type="curve"/>
      <point x="656" y="467" type="line"/>
      <point x="609" y="620"/>
      <point x="612" y="682"/>
      <point x="447" y="682" type="curve"/>
      <point x="447" y="112" type="line"/>
      <point x="586" y="112" type="line"/>
      <point x="586" y="17" type="line"/>
      <point x="468" y="17"/>
      <point x="272" y="15"/>
    </contour>
  </outline>
</glyph>
<glyph name="U" format="1">
  <advance width="843"/>
  <unicode hex="0055"/>
  <outline>
    <contour>
      <point x="144" y="99"/>
      <point x="226.0" y="-13.0"/>
      <point x="425" y="-13" type="curve" smooth="yes"/>
      <point x="646" y="-13"/>
      <point x="706" y="107"/>
      <point x="706" y="266" type="curve"/>
      <point x="706" y="632" type="line"/>
      <point x="818" y="632" type="line"/>
      <point x="818" y="722" type="line"/>
      <point x="485" y="722" type="line"/>
      <point x="485" y="632" type="line"/>
      <point x="604" y="632" type="line"/>
      <point x="604" y="260" type="line" smooth="yes"/>
      <point x="604" y="141"/>
      <point x="546" y="93"/>
      <point x="436" y="93" type="curve" smooth="yes"/>
      <point x="317.0" y="93.0"/>
      <point x="283" y="160"/>
      <point x="283" y="257" type="curve" smooth="yes"/>
      <point x="283" y="632" type="line"/>
      <point x="395" y="632" type="line"/>
      <point x="395" y="722" type="line"/>
      <point x="25" y="722" type="line"/>
      <point x="25" y="632" type="line"/>
      <point x="144" y="632" type="line"/>
      <point x="144" y="251" type="line" smooth="yes"/>
    </contour>
  </outline>
</glyph>
<glyph name="V" format="1">
  <advance width="909"/>
  <unicode hex="0056"/>
  <outline>
    <contour>
      <point x="16.3516" y="690" type="curve"/>
      <point x="16.3516" y="695"/>
      <point x="15.3516" y="714"/>
      <point x="15.3516" y="718" type="curve" smooth="yes"/>
      <point x="15.3516" y="729"/>
      <point x="11.3516" y="756"/>
      <point x="30.3516" y="760" type="curve"/>
      <point x="50.3516" y="760"/>
      <point x="143.352" y="761"/>
      <point x="163.352" y="761" type="curve" smooth="yes"/>
      <point x="271.352" y="761"/>
      <point x="339.352" y="762"/>
      <point x="448.352" y="746" type="curve"/>
      <point x="448.352" y="669" type="line"/>
      <point x="337.352" y="669" type="line" smooth="yes"/>
      <point x="326.352" y="669"/>
      <point x="322.352" y="651"/>
      <point x="322.352" y="642" type="curve" smooth="yes"/>
      <point x="322.352" y="641"/>
      <point x="323.352" y="636"/>
      <point x="323.352" y="635" type="curve" smooth="yes"/>
      <point x="341.352" y="580"/>
      <point x="429.352" y="326"/>
      <point x="448.352" y="272" type="curve"/>
      <point x="452.352" y="264"/>
      <point x="470.352" y="214"/>
      <point x="490.352" y="203" type="curve"/>
      <point x="630.352" y="607" type="line"/>
      <point x="630.352" y="614" type="line" smooth="yes"/>
      <point x="630.352" y="710"/>
      <point x="499.352" y="606"/>
      <point x="499.352" y="746" type="curve"/>
      <point x="894.352" y="746" type="line"/>
      <point x="894.352" y="676" type="line"/>
      <point x="859.352" y="673"/>
      <point x="774.352" y="655"/>
      <point x="755.352" y="607" type="curve" smooth="yes"/>
      <point x="518.352" y="-7" type="line"/>
      <point x="393.352" y="-7" type="line"/>
      <point x="170.352" y="593" type="line" smooth="yes"/>
      <point x="140.352" y="672"/>
      <point x="108.352" y="694"/>
    </contour>
  </outline>
</glyph>
<glyph name="W" format="1">
  <advance width="1243"/>
  <unicode hex="0057"/>
  <outline>
    <contour>
      <point x="28" y="862" type="curve"/>
      <point x="26" y="871"/>
      <point x="15" y="904"/>
      <point x="15" y="923" type="curve" smooth="yes"/>
      <point x="15" y="933"/>
      <point x="16" y="937"/>
      <point x="28" y="943" type="curve"/>
      <point x="48" y="943"/>
      <point x="137" y="944"/>
      <point x="156" y="944" type="curve" smooth="yes"/>
      <point x="240" y="944"/>
      <point x="310" y="947"/>
      <point x="392" y="929" type="curve"/>
      <point x="394" y="924"/>
      <point x="397" y="901"/>
      <point x="397" y="896" type="curve" smooth="yes"/>
      <point x="397" y="829"/>
      <point x="337" y="874"/>
      <point x="311" y="822" type="curve"/>
      <point x="329" y="771"/>
      <point x="414" y="535"/>
      <point x="432" y="485" type="curve" smooth="yes"/>
      <point x="438" y="470"/>
      <point x="446" y="454"/>
      <point x="459" y="444" type="curve"/>
      <point x="473" y="454"/>
      <point x="481" y="470"/>
      <point x="486" y="485" type="curve" smooth="yes"/>
      <point x="499" y="519"/>
      <point x="555" y="679"/>
      <point x="567" y="714" type="curve"/>
      <point x="567" y="718"/>
      <point x="569" y="737"/>
      <point x="569" y="741" type="curve" smooth="yes"/>
      <point x="569" y="870"/>
      <point x="431" y="818"/>
      <point x="431" y="929" type="curve"/>
      <point x="847" y="929" type="line"/>
      <point x="847" y="811"/>
      <point x="714" y="889"/>
      <point x="714" y="801" type="curve" smooth="yes"/>
      <point x="714" y="798"/>
      <point x="715" y="784"/>
      <point x="715" y="781" type="curve"/>
      <point x="733" y="733"/>
      <point x="818" y="506"/>
      <point x="836" y="458" type="curve" smooth="yes"/>
      <point x="841" y="445"/>
      <point x="842" y="430"/>
      <point x="857" y="430" type="curve" smooth="yes"/>
      <point x="871" y="430"/>
      <point x="872" y="445"/>
      <point x="877" y="458" type="curve" smooth="yes"/>
      <point x="892" y="500"/>
      <point x="958" y="698"/>
      <point x="971" y="741" type="curve"/>
      <point x="971" y="747"/>
      <point x="972" y="775"/>
      <point x="972" y="781" type="curve" smooth="yes"/>
      <point x="972" y="848"/>
      <point x="953" y="843"/>
      <point x="877" y="862" type="curve"/>
      <point x="871" y="875"/>
      <point x="863" y="893"/>
      <point x="863" y="910" type="curve" smooth="yes"/>
      <point x="863" y="917"/>
      <point x="865" y="929"/>
      <point x="877" y="929" type="curve" smooth="yes"/>
      <point x="1214" y="929" type="line" smooth="yes"/>
      <point x="1230" y="929"/>
      <point x="1228" y="903"/>
      <point x="1228" y="896" type="curve" smooth="yes"/>
      <point x="1228" y="823"/>
      <point x="1103" y="849"/>
      <point x="1065" y="741" type="curve" smooth="yes"/>
      <point x="890" y="242" type="line"/>
      <point x="877" y="215" type="line" smooth="yes"/>
      <point x="876" y="215"/>
      <point x="853" y="213"/>
      <point x="844" y="213" type="curve" smooth="yes"/>
      <point x="828" y="213"/>
      <point x="792" y="205"/>
      <point x="783" y="229" type="curve" smooth="yes"/>
      <point x="634" y="593" type="line"/>
      <point x="621" y="593" type="line"/>
      <point x="473" y="215" type="line" smooth="yes"/>
      <point x="472" y="215"/>
      <point x="454" y="213"/>
      <point x="446" y="213" type="curve" smooth="yes"/>
      <point x="429" y="213"/>
      <point x="401" y="207"/>
      <point x="392" y="229" type="curve" smooth="yes"/>
      <point x="150" y="822" type="line"/>
      <point x="135" y="856"/>
      <point x="42" y="861"/>
    </contour>
  </outline>
</glyph>
<glyph name="X" format="1">
  <advance width="962"/>
  <unicode hex="0058"/>
  <outline>
    <contour>
      <point x="471.352" y="28" type="curve" smooth="yes"/>
      <point x="471.352" y="34"/>
      <point x="475.352" y="58"/>
      <point x="476.352" y="63" type="curve"/>
      <point x="504.352" y="65"/>
      <point x="575.352" y="60"/>
      <point x="575.352" y="105" type="curve" smooth="yes"/>
      <point x="575.352" y="107"/>
      <point x="574.352" y="117"/>
      <point x="574.352" y="119" type="curve"/>
      <point x="560.352" y="138"/>
      <point x="491.352" y="226"/>
      <point x="476.352" y="244" type="curve" smooth="yes"/>
      <point x="472.352" y="249"/>
      <point x="453.352" y="268"/>
      <point x="448.352" y="272" type="curve"/>
      <point x="431.352" y="254"/>
      <point x="353.352" y="166"/>
      <point x="337.352" y="147" type="curve" smooth="yes"/>
      <point x="324.352" y="132"/>
      <point x="322.352" y="121"/>
      <point x="322.352" y="104" type="curve" smooth="yes"/>
      <point x="322.352" y="39"/>
      <point x="446.352" y="110"/>
      <point x="446.352" y="-7" type="curve"/>
      <point x="30.3516" y="-7" type="line" smooth="yes"/>
      <point x="11.3516" y="-7"/>
      <point x="15.3516" y="33"/>
      <point x="15.3516" y="37" type="curve" smooth="yes"/>
      <point x="15.3516" y="85"/>
      <point x="185.352" y="135"/>
      <point x="225.352" y="175" type="curve" smooth="yes"/>
      <point x="240.352" y="189"/>
      <point x="328.352" y="287"/>
      <point x="351.352" y="314" type="curve" smooth="yes"/>
      <point x="361.352" y="326"/>
      <point x="379.352" y="344"/>
      <point x="379.352" y="363" type="curve" smooth="yes"/>
      <point x="379.352" y="370" type="line" smooth="yes"/>
      <point x="350.352" y="408"/>
      <point x="213.352" y="583"/>
      <point x="184.352" y="621" type="curve" smooth="yes"/>
      <point x="173.352" y="634"/>
      <point x="44.3516" y="676"/>
      <point x="44.3516" y="676" type="curve"/>
      <point x="44.3516" y="746" type="line"/>
      <point x="448.352" y="746" type="line"/>
      <point x="448.352" y="665" type="line"/>
      <point x="432.352" y="665"/>
      <point x="378.352" y="663"/>
      <point x="378.352" y="643" type="curve" smooth="yes"/>
      <point x="378.352" y="629"/>
      <point x="385.352" y="618"/>
      <point x="393.352" y="607" type="curve" smooth="yes"/>
      <point x="416.352" y="573"/>
      <point x="474.352" y="495"/>
      <point x="476.352" y="495" type="curve" smooth="yes"/>
      <point x="490.352" y="495" type="line" smooth="yes"/>
      <point x="507.352" y="495"/>
      <point x="589.352" y="587"/>
      <point x="589.352" y="620" type="curve" smooth="yes"/>
      <point x="589.352" y="685"/>
      <point x="490.352" y="625"/>
      <point x="490.352" y="712" type="curve" smooth="yes"/>
      <point x="490.352" y="720"/>
      <point x="492.352" y="732"/>
      <point x="504.352" y="732" type="curve" smooth="yes"/>
      <point x="894.352" y="732" type="line"/>
      <point x="894.352" y="662" type="line" smooth="yes"/>
      <point x="894.352" y="639"/>
      <point x="757.352" y="623"/>
      <point x="727.352" y="593" type="curve" smooth="yes"/>
      <point x="677.352" y="543"/>
      <point x="560.352" y="416"/>
      <point x="560.352" y="412" type="curve" smooth="yes"/>
      <point x="560.352" y="384" type="line"/>
      <point x="797.352" y="91" type="line" smooth="yes"/>
      <point x="851.352" y="24"/>
      <point x="947.352" y="103"/>
      <point x="947.352" y="-20" type="curve"/>
      <point x="532.352" y="-20" type="line" smooth="yes"/>
      <point x="478.352" y="-20"/>
      <point x="471.352" y="-15"/>
    </contour>
  </outline>
</glyph>
<glyph name="a" format="1">
  <advance width="622"/>
  <unicode hex="0061"/>
  <outline>
    <contour>
      <point x="31" y="280"/>
      <point x="341" y="227"/>
      <point x="341" y="379" type="curve" smooth="yes"/>
      <point x="341" y="442"/>
      <point x="301" y="478"/>
      <point x="246" y="478" type="curve" smooth="yes"/>
      <point x="201" y="478"/>
      <point x="166" y="471"/>
      <point x="137" y="438" type="curve"/>
      <point x="176" y="433"/>
      <point x="196" y="403"/>
      <point x="196" y="374" type="curve" smooth="yes"/>
      <point x="196" y="343"/>
      <point x="176" y="312"/>
      <point x="126" y="312" type="curve" smooth="yes"/>
      <point x="75" y="312"/>
      <point x="55" y="353"/>
      <point x="55" y="395" type="curve" smooth="yes"/>
      <point x="55" y="487"/>
      <point x="152" y="539"/>
      <point x="251" y="539" type="curve" smooth="yes"/>
      <point x="355" y="539"/>
      <point x="461" y="490"/>
      <point x="461" y="393" type="curve" smooth="yes"/>
      <point x="461" y="155" type="line" smooth="yes"/>
      <point x="461" y="122"/>
      <point x="462" y="69"/>
      <point x="507" y="69" type="curve" smooth="yes"/>
      <point x="554" y="69"/>
      <point x="561" y="117"/>
      <point x="561" y="160" type="curve" smooth="yes"/>
      <point x="561" y="176"/>
      <point x="560" y="191"/>
      <point x="560" y="203" type="curve"/>
      <point x="616" y="203" type="line"/>
      <point x="616" y="89"/>
      <point x="614" y="-13"/>
      <point x="471" y="-13" type="curve" smooth="yes"/>
      <point x="411" y="-13"/>
      <point x="358" y="16"/>
      <point x="347" y="86" type="curve"/>
      <point x="310" y="16"/>
      <point x="247" y="-13"/>
      <point x="169" y="-13" type="curve" smooth="yes"/>
      <point x="87" y="-13"/>
      <point x="31" y="31"/>
      <point x="31" y="116" type="curve" smooth="yes"/>
    </contour>
    <contour>
      <point x="150" y="82"/>
      <point x="161" y="62"/>
      <point x="202" y="60" type="curve" smooth="yes"/>
      <point x="256" y="58"/>
      <point x="340" y="136"/>
      <point x="340" y="180" type="curve" smooth="yes"/>
      <point x="340" y="267" type="line"/>
      <point x="234" y="175"/>
      <point x="150" y="183"/>
      <point x="150" y="114" type="curve" smooth="yes"/>
    </contour>
  </outline>
</glyph>
<glyph name="b" format="1">
  <advance width="607"/>
  <unicode hex="0062"/>
  <outline>
    <contour>
      <point x="-22" y="750" type="line"/>
      <point x="206" y="750" type="line"/>
      <point x="206" y="460" type="line"/>
      <point x="239" y="509"/>
      <point x="287" y="538"/>
      <point x="345" y="538" type="curve" smooth="yes"/>
      <point x="481" y="538"/>
      <point x="571" y="418"/>
      <point x="571" y="262" type="curve" smooth="yes"/>
      <point x="571" y="106"/>
      <point x="484" y="-13"/>
      <point x="354" y="-13" type="curve" smooth="yes"/>
      <point x="289" y="-13"/>
      <point x="225" y="18"/>
      <point x="184" y="77" type="curve"/>
      <point x="146" y="0" type="line"/>
      <point x="81" y="0" type="line"/>
      <point x="81" y="660" type="line"/>
      <point x="-22" y="660" type="line"/>
    </contour>
    <contour>
      <point x="325" y="457" type="curve" smooth="yes"/>
      <point x="234" y="457"/>
      <point x="206" y="366"/>
      <point x="206" y="285" type="curve" smooth="yes"/>
      <point x="206" y="153"/>
      <point x="243" y="75"/>
      <point x="324" y="75" type="curve" smooth="yes"/>
      <point x="408" y="75"/>
      <point x="439" y="172"/>
      <point x="439" y="256" type="curve" smooth="yes"/>
      <point x="439" y="343"/>
      <point x="419" y="457"/>
    </contour>
  </outline>
</glyph>
<glyph name="c" format="1">
  <advance width="559"/>
  <unicode hex="0063"/>
  <outline>
    <contour>
      <point x="156" y="-13"/>
      <point x="36" y="91"/>
      <point x="36" y="252" type="curve" smooth="yes"/>
      <point x="36" y="401"/>
      <point x="133" y="539"/>
      <point x="308" y="539" type="curve" smooth="yes"/>
      <point x="400" y="539"/>
      <point x="518" y="495"/>
      <point x="518" y="369" type="curve" smooth="yes"/>
      <point x="518" y="336"/>
      <point x="490" y="296"/>
      <point x="438" y="296" type="curve" smooth="yes"/>
      <point x="399" y="296"/>
      <point x="369" y="317"/>
      <point x="369" y="353" type="curve" smooth="yes"/>
      <point x="369" y="407"/>
      <point x="421" y="416"/>
      <point x="421" y="416" type="curve"/>
      <point x="411.461882391" y="432.956653527"/>
      <point x="378.174905158" y="465.0"/>
      <point x="325" y="465" type="curve" smooth="yes"/>
      <point x="223" y="465"/>
      <point x="172" y="370"/>
      <point x="172" y="270" type="curve" smooth="yes"/>
      <point x="172" y="160"/>
      <point x="223" y="79"/>
      <point x="327" y="79" type="curve" smooth="yes"/>
      <point x="433" y="79"/>
      <point x="452" y="152"/>
      <point x="467" y="188" type="curve"/>
      <point x="531" y="164" type="line"/>
      <point x="507" y="59"/>
      <point x="414" y="-13"/>
      <point x="294" y="-13" type="curve" smooth="yes"/>
    </contour>
  </outline>
</glyph>
<glyph name="d" format="1">
  <advance width="640"/>
  <unicode hex="0064"/>
  <outline>
    <contour>
      <point x="259" y="-13" type="curve" smooth="yes"/>
      <point x="129" y="-13"/>
      <point x="42" y="106"/>
      <point x="42" y="262" type="curve" smooth="yes"/>
      <point x="42" y="418"/>
      <point x="132" y="538"/>
      <point x="268" y="538" type="curve" smooth="yes"/>
      <point x="326" y="538"/>
      <point x="374" y="509"/>
      <point x="407" y="460" type="curve"/>
      <point x="407" y="660" type="line"/>
      <point x="303" y="660" type="line"/>
      <point x="303" y="750" type="line"/>
      <point x="532" y="750" type="line"/>
      <point x="532" y="87" type="line"/>
      <point x="627" y="87" type="line"/>
      <point x="627" y="0" type="line"/>
      <point x="407" y="0" type="line"/>
      <point x="407" y="92" type="line"/>
      <point x="368" y="14"/>
      <point x="312" y="-13"/>
    </contour>
    <contour>
      <point x="288" y="457" type="curve" smooth="yes"/>
      <point x="194" y="457"/>
      <point x="174" y="343"/>
      <point x="174" y="256" type="curve" smooth="yes"/>
      <point x="174" y="172"/>
      <point x="205" y="75"/>
      <point x="289" y="75" type="curve" smooth="yes"/>
      <point x="370" y="75"/>
      <point x="407" y="153"/>
      <point x="407" y="285" type="curve" smooth="yes"/>
      <point x="407" y="366"/>
      <point x="379" y="457"/>
    </contour>
  </outline>
</glyph>
<glyph name="e" format="1">
  <advance width="589"/>
  <unicode hex="0065"/>
  <outline>
    <contour>
      <point x="40" y="394"/>
      <point x="128" y="539"/>
      <point x="298" y="539" type="curve" smooth="yes"/>
      <point x="436" y="539"/>
      <point x="539" y="447"/>
      <point x="542" y="267" type="curve"/>
      <point x="179" y="267" type="line"/>
      <point x="179" y="202"/>
      <point x="208" y="89"/>
      <point x="322" y="89" type="curve" smooth="yes"/>
      <point x="387.06919394" y="89.0"/>
      <point x="443.371668979" y="124.230013874"/>
      <point x="457" y="206" type="curve"/>
      <point x="547" y="206" type="line"/>
      <point x="530" y="64"/>
      <point x="421" y="-14"/>
      <point x="295" y="-14" type="curve" smooth="yes"/>
      <point x="140" y="-14"/>
      <point x="44" y="97"/>
      <point x="40" y="245" type="curve" smooth="yes"/>
    </contour>
    <contour>
      <point x="234" y="457"/>
      <point x="193" y="397"/>
      <point x="184" y="333" type="curve"/>
      <point x="415" y="333" type="line"/>
      <point x="415" y="409"/>
      <point x="375" y="457"/>
      <point x="305" y="457" type="curve" smooth="yes"/>
    </contour>
  </outline>
</glyph>
<glyph name="f" format="1">
  <advance width="409"/>
  <unicode hex="0066"/>
  <outline>
    <contour>
      <point x="129" y="456" type="line"/>
      <point x="129" y="87" type="line"/>
      <point x="29" y="87" type="line"/>
      <point x="29" y="0" type="line"/>
      <point x="372" y="0" type="line"/>
      <point x="372" y="87" type="line"/>
      <point x="257" y="87" type="line"/>
      <point x="257" y="456" type="line"/>
      <point x="369" y="456" type="line"/>
      <point x="369" y="524" type="line"/>
      <point x="257" y="524" type="line"/>
      <point x="257" y="604" type="line" smooth="yes"/>
      <point x="257" y="686"/>
      <point x="290" y="722"/>
      <point x="326" y="722" type="curve" smooth="yes"/>
      <point x="351" y="722"/>
      <point x="373" y="710"/>
      <point x="374" y="687" type="curve"/>
      <point x="374" y="687"/>
      <point x="334" y="682"/>
      <point x="334" y="630" type="curve" smooth="yes"/>
      <point x="334" y="595"/>
      <point x="364" y="578"/>
      <point x="399" y="578" type="curve" smooth="yes"/>
      <point x="439" y="578"/>
      <point x="468" y="620"/>
      <point x="468" y="666" type="curve" smooth="yes"/>
      <point x="468" y="720"/>
      <point x="423" y="782"/>
      <point x="321" y="782" type="curve" smooth="yes"/>
      <point x="184" y="782"/>
      <point x="129" y="690"/>
      <point x="129" y="524" type="curve"/>
      <point x="29" y="524" type="line"/>
      <point x="29" y="456" type="line"/>
    </contour>
  </outline>
</glyph>
<glyph name="g" format="1">
  <advance width="611"/>
  <unicode hex="0067"/>
  <outline>
    <contour>
      <point x="51" y="-38"/>
      <point x="72" y="25"/>
      <point x="126" y="43" type="curve"/>
      <point x="109" y="47"/>
      <point x="69" y="71"/>
      <point x="69" y="116" type="curve" smooth="yes"/>
      <point x="69" y="190"/>
      <point x="130" y="223"/>
      <point x="130" y="223" type="curve"/>
      <point x="78" y="251"/>
      <point x="49" y="301"/>
      <point x="49" y="364" type="curve" smooth="yes"/>
      <point x="49" y="461"/>
      <point x="142" y="538"/>
      <point x="271" y="538" type="curve" smooth="yes"/>
      <point x="342" y="538"/>
      <point x="408" y="520"/>
      <point x="439" y="479" type="curve"/>
      <point x="439" y="479"/>
      <point x="523" y="535"/>
      <point x="570" y="535" type="curve" smooth="yes"/>
      <point x="629" y="535"/>
      <point x="656" y="486"/>
      <point x="656" y="451" type="curve" smooth="yes"/>
      <point x="656" y="420"/>
      <point x="636" y="391"/>
      <point x="600" y="391" type="curve" smooth="yes"/>
      <point x="569" y="391"/>
      <point x="546" y="415"/>
      <point x="546" y="444" type="curve" smooth="yes"/>
      <point x="546" y="453"/>
      <point x="548" y="463"/>
      <point x="553" y="472" type="curve"/>
      <point x="523" y="468"/>
      <point x="471" y="431"/>
      <point x="471" y="431" type="curve"/>
      <point x="482" y="418"/>
      <point x="492" y="387"/>
      <point x="492" y="352" type="curve" smooth="yes"/>
      <point x="492" y="280"/>
      <point x="446" y="190"/>
      <point x="284" y="190" type="curve" smooth="yes"/>
      <point x="236" y="190"/>
      <point x="176.0" y="184.224719101"/>
      <point x="176" y="140" type="curve" smooth="yes"/>
      <point x="176" y="125"/>
      <point x="187" y="115"/>
      <point x="215" y="115" type="curve" smooth="yes"/>
      <point x="361" y="115" type="line" smooth="yes"/>
      <point x="498" y="115"/>
      <point x="538" y="36"/>
      <point x="538" y="-24" type="curve" smooth="yes"/>
      <point x="538" y="-167"/>
      <point x="420" y="-223"/>
      <point x="290" y="-223" type="curve" smooth="yes"/>
      <point x="176" y="-223"/>
      <point x="51" y="-206"/>
      <point x="51" y="-86" type="curve" smooth="yes"/>
    </contour>
    <contour>
      <point x="147" y="-98"/>
      <point x="152" y="-127"/>
      <point x="289" y="-127" type="curve" smooth="yes"/>
      <point x="417.598937422" y="-127.0"/>
      <point x="432.0" y="-74.9896794354"/>
      <point x="432" y="-44" type="curve" smooth="yes"/>
      <point x="432" y="10"/>
      <point x="379" y="18"/>
      <point x="333" y="18" type="curve" smooth="yes"/>
      <point x="291" y="18"/>
      <point x="258" y="18"/>
      <point x="198" y="18" type="curve"/>
      <point x="174" y="6"/>
      <point x="147" y="-21"/>
      <point x="147" y="-54" type="curve" smooth="yes"/>
    </contour>
    <contour>
      <point x="365" y="261"/>
      <point x="377" y="319"/>
      <point x="377" y="365" type="curve" smooth="yes"/>
      <point x="377" y="414"/>
      <point x="360" y="465"/>
      <point x="272" y="465" type="curve" smooth="yes"/>
      <point x="195" y="465"/>
      <point x="167" y="414"/>
      <point x="167" y="365" type="curve" smooth="yes"/>
      <point x="167" y="319"/>
      <point x="189" y="261"/>
      <point x="272" y="261" type="curve" smooth="yes"/>
    </contour>
  </outline>
</glyph>
<glyph name="h" format="1">
  <advance width="729"/>
  <unicode hex="0068"/>
  <outline>
    <contour>
      <point x="610" y="353" type="line" smooth="yes"/>
      <point x="610" y="521"/>
      <point x="487" y="538"/>
      <point x="431" y="538" type="curve" smooth="yes"/>
      <point x="358" y="538"/>
      <point x="292" y="507"/>
      <point x="257" y="424" type="curve"/>
      <point x="257" y="750" type="line"/>
      <point x="28" y="750" type="line"/>
      <point x="28" y="660" type="line"/>
      <point x="132" y="660" type="line"/>
      <point x="132" y="87" type="line"/>
      <point x="28" y="87" type="line"/>
      <point x="28" y="0" type="line"/>
      <point x="352" y="0" type="line"/>
      <point x="352" y="87" type="line"/>
      <point x="257" y="87" type="line"/>
      <point x="257" y="262" type="line" smooth="yes"/>
      <point x="257" y="357"/>
      <point x="283" y="451"/>
      <point x="393" y="451" type="curve" smooth="yes"/>
      <point x="437" y="451"/>
      <point x="485" y="427"/>
      <point x="485" y="371" type="curve" smooth="yes"/>
      <point x="485" y="87" type="line"/>
      <point x="390" y="87" type="line"/>
      <point x="390" y="0" type="line"/>
      <point x="715" y="0" type="line"/>
      <point x="715" y="87" type="line"/>
      <point x="610" y="87" type="line"/>
    </contour>
  </outline>
</glyph>
<glyph name="i" format="1">
  <advance width="347.0"/>
  <unicode hex="0069"/>
  <outline>
    <contour>
      <point x="241.0" y="524" type="line"/>
      <point x="241.0" y="87" type="line"/>
      <point x="326.0" y="87" type="line"/>
      <point x="326.0" y="0" type="line"/>
      <point x="32.0" y="0" type="line"/>
      <point x="32.0" y="87" type="line"/>
      <point x="116.0" y="87" type="line"/>
      <point x="116.0" y="434" type="line"/>
      <point x="32.0" y="434" type="line"/>
      <point x="32.0" y="524" type="line"/>
    </contour>
    <contour>
      <point x="114.0" y="711" type="curve" smooth="yes"/>
      <point x="114.0" y="747"/>
      <point x="144.0" y="777"/>
      <point x="180.0" y="777" type="curve" smooth="yes"/>
      <point x="216.0" y="777"/>
      <point x="246.0" y="747"/>
      <point x="246.0" y="711" type="curve" smooth="yes"/>
      <point x="246.0" y="675"/>
      <point x="216.0" y="645"/>
      <point x="180.0" y="645" type="curve" smooth="yes"/>
      <point x="144.0" y="645"/>
      <point x="114.0" y="675"/>
    </contour>
  </outline>
</glyph>
<glyph name="j" format="1">
  <advance width="340"/>
  <unicode hex="006A"/>
  <outline>
    <contour>
      <point x="133" y="785"/>
      <point x="95" y="746"/>
      <point x="95" y="700" type="curve" smooth="yes"/>
      <point x="95" y="654"/>
      <point x="133" y="616"/>
      <point x="179" y="616" type="curve" smooth="yes"/>
      <point x="225" y="616"/>
      <point x="264" y="654"/>
      <point x="264" y="700" type="curve" smooth="yes"/>
      <point x="264" y="746"/>
      <point x="225" y="785"/>
      <point x="179" y="785" type="curve" smooth="yes"/>
    </contour>
    <contour>
      <point x="-90" y="-140"/>
      <point x="-28" y="-188"/>
      <point x="73" y="-188" type="curve" smooth="yes"/>
      <point x="184" y="-188"/>
      <point x="258" y="-123"/>
      <point x="258" y="-1" type="curve" smooth="yes"/>
      <point x="258" y="524" type="line"/>
      <point x="26" y="524" type="line"/>
      <point x="26" y="434" type="line"/>
      <point x="133" y="434" type="line"/>
      <point x="133" y="-16" type="line" smooth="yes"/>
      <point x="133" y="-106"/>
      <point x="101" y="-126"/>
      <point x="72" y="-126" type="curve" smooth="yes"/>
      <point x="50" y="-126"/>
      <point x="30" y="-114"/>
      <point x="30" y="-114" type="curve"/>
      <point x="53" y="-104"/>
      <point x="58" y="-81"/>
      <point x="58" y="-59" type="curve" smooth="yes"/>
      <point x="58" y="-24"/>
      <point x="34" y="10"/>
      <point x="-11" y="10" type="curve" smooth="yes"/>
      <point x="-67" y="10"/>
      <point x="-90" y="-27"/>
      <point x="-90" y="-74" type="curve" smooth="yes"/>
    </contour>
  </outline>
</glyph>
<glyph name="k" format="1">
  <advance width="687"/>
  <unicode hex="006B"/>
  <outline>
    <contour>
      <point x="251" y="750" type="line"/>
      <point x="251" y="279" type="line"/>
      <point x="251" y="279"/>
      <point x="372" y="385"/>
      <point x="429" y="437" type="curve"/>
      <point x="335" y="437" type="line"/>
      <point x="335" y="524" type="line"/>
      <point x="628" y="524" type="line"/>
      <point x="628" y="437" type="line"/>
      <point x="539" y="437" type="line"/>
      <point x="398" y="308" type="line"/>
      <point x="438" y="253"/>
      <point x="501" y="164"/>
      <point x="541" y="115" type="curve" smooth="yes"/>
      <point x="559" y="93"/>
      <point x="595" y="87"/>
      <point x="666" y="87" type="curve"/>
      <point x="666" y="0" type="line"/>
      <point x="651" y="0"/>
      <point x="628" y="0"/>
      <point x="616" y="0" type="curve" smooth="yes"/>
      <point x="506" y="1"/>
      <point x="493" y="9"/>
      <point x="441" y="87" type="curve" smooth="yes"/>
      <point x="323" y="251" type="line"/>
      <point x="251" y="188" type="line"/>
      <point x="251" y="87" type="line"/>
      <point x="324" y="87" type="line"/>
      <point x="324" y="0" type="line"/>
      <point x="27" y="0" type="line"/>
      <point x="27" y="87" type="line"/>
      <point x="126" y="87" type="line"/>
      <point x="126" y="660" type="line"/>
      <point x="27" y="660" type="line"/>
      <point x="27" y="750" type="line"/>
    </contour>
  </outline>
</glyph>
<glyph name="l" format="1">
  <advance width="347"/>
  <unicode hex="006C"/>
  <outline>
    <contour>
      <point x="239" y="750" type="line"/>
      <point x="239" y="87" type="line"/>
      <point x="332" y="87" type="line"/>
      <point x="332" y="0" type="line"/>
      <point x="15" y="0" type="line"/>
      <point x="15" y="87" type="line"/>
      <point x="114" y="87" type="line"/>
      <point x="114" y="660" type="line"/>
      <point x="15" y="660" type="line"/>
      <point x="15" y="750" type="line"/>
    </contour>
  </outline>
</glyph>
<glyph name="m" format="1">
  <advance width="931"/>
  <unicode hex="006D"/>
  <outline>
    <contour>
      <point x="558" y="353" type="curve" smooth="yes"/>
      <point x="558" y="87" type="line"/>
      <point x="622" y="87" type="line"/>
      <point x="622" y="0" type="line"/>
      <point x="360" y="0" type="line"/>
      <point x="360" y="87" type="line"/>
      <point x="433" y="87" type="line"/>
      <point x="433" y="371" type="line" smooth="yes"/>
      <point x="433" y="430"/>
      <point x="389" y="451"/>
      <point x="353" y="451" type="curve" smooth="yes"/>
      <point x="261" y="451"/>
      <point x="255" y="354"/>
      <point x="255" y="262" type="curve" smooth="yes"/>
      <point x="255" y="87" type="line"/>
      <point x="320" y="87" type="line"/>
      <point x="320" y="0" type="line"/>
      <point x="26" y="0" type="line"/>
      <point x="26" y="87" type="line"/>
      <point x="130" y="87" type="line"/>
      <point x="130" y="434" type="line"/>
      <point x="26" y="434" type="line"/>
      <point x="26" y="524" type="line"/>
      <point x="252" y="524" type="line"/>
      <point x="252" y="395" type="line"/>
      <point x="280" y="508"/>
      <point x="338" y="538"/>
      <point x="399" y="538" type="curve" smooth="yes"/>
      <point x="449" y="538"/>
      <point x="558" y="521"/>
    </contour>
    <contour>
      <point x="694" y="538" type="curve" smooth="yes"/>
      <point x="744" y="538"/>
      <point x="853" y="521"/>
      <point x="853" y="353" type="curve" smooth="yes"/>
      <point x="853" y="87" type="line"/>
      <point x="932" y="87" type="line"/>
      <point x="932" y="0" type="line"/>
      <point x="656" y="0" type="line"/>
      <point x="656" y="87" type="line"/>
      <point x="728" y="87" type="line"/>
      <point x="728" y="371" type="line" smooth="yes"/>
      <point x="728" y="430"/>
      <point x="684" y="451"/>
      <point x="648" y="451" type="curve" smooth="yes"/>
      <point x="556" y="451"/>
      <point x="550" y="354"/>
      <point x="550" y="262" type="curve"/>
      <point x="540" y="424" type="line"/>
      <point x="548" y="424" type="line"/>
      <point x="572" y="508"/>
      <point x="629" y="538"/>
    </contour>
  </outline>
</glyph>
<glyph name="n" format="1">
  <advance width="709"/>
  <unicode hex="006E"/>
  <outline>
    <contour>
      <point x="600" y="348" type="curve" smooth="yes"/>
      <point x="600" y="87" type="line"/>
      <point x="700" y="87" type="line"/>
      <point x="700" y="0" type="line"/>
      <point x="386" y="0" type="line"/>
      <point x="386" y="87" type="line"/>
      <point x="475" y="87" type="line"/>
      <point x="475" y="337" type="line" smooth="yes"/>
      <point x="475" y="425"/>
      <point x="421" y="451"/>
      <point x="375" y="451" type="curve" smooth="yes"/>
      <point x="256" y="451"/>
      <point x="247" y="354"/>
      <point x="247" y="262" type="curve" smooth="yes"/>
      <point x="247" y="87" type="line"/>
      <point x="336" y="87" type="line"/>
      <point x="336" y="0" type="line"/>
      <point x="27" y="0" type="line"/>
      <point x="27" y="87" type="line"/>
      <point x="122" y="87" type="line"/>
      <point x="122" y="434" type="line"/>
      <point x="27" y="434" type="line"/>
      <point x="27" y="524" type="line"/>
      <point x="244" y="524" type="line"/>
      <point x="244.0" y="499.5"/>
      <point x="244" y="427"/>
      <point x="244" y="426" type="curve"/>
      <point x="280" y="508"/>
      <point x="355" y="538"/>
      <point x="428" y="538" type="curve" smooth="yes"/>
      <point x="484" y="538"/>
      <point x="600" y="516"/>
    </contour>
  </outline>
</glyph>
<glyph name="o" format="1">
  <advance width="596"/>
  <unicode hex="006F"/>
  <outline>
    <contour>
      <point x="299" y="-13" type="curve" smooth="yes"/>
      <point x="139" y="-13"/>
      <point x="36" y="106"/>
      <point x="36" y="262" type="curve" smooth="yes"/>
      <point x="36" y="418"/>
      <point x="138" y="538"/>
      <point x="298" y="538" type="curve" smooth="yes"/>
      <point x="458" y="538"/>
      <point x="560" y="418"/>
      <point x="560" y="262" type="curve" smooth="yes"/>
      <point x="560" y="108"/>
      <point x="458" y="-13"/>
    </contour>
    <contour>
      <point x="298" y="457" type="curve" smooth="yes"/>
      <point x="188" y="457"/>
      <point x="168" y="343"/>
      <point x="168" y="256" type="curve" smooth="yes"/>
      <point x="168" y="172"/>
      <point x="199" y="75"/>
      <point x="299" y="75" type="curve" smooth="yes"/>
      <point x="398" y="75"/>
      <point x="428" y="174"/>
      <point x="428" y="256" type="curve" smooth="yes"/>
      <point x="428" y="343"/>
      <point x="408" y="457"/>
    </contour>
  </outline>
</glyph>
<glyph name="r" format="1">
  <advance width="513"/>
  <unicode hex="0072"/>
  <outline>
    <contour>
      <point x="385" y="532" type="curve" smooth="yes"/>
      <point x="454" y="532"/>
      <point x="498" y="492"/>
      <point x="498" y="420" type="curve" smooth="yes"/>
      <point x="498" y="327"/>
      <point x="347" y="319"/>
      <point x="347" y="418" type="curve" smooth="yes"/>
      <point x="347" y="442"/>
      <point x="367" y="473"/>
      <point x="367" y="473" type="curve"/>
      <point x="290" y="473"/>
      <point x="224" y="422"/>
      <point x="224" y="331" type="curve" smooth="yes"/>
      <point x="224" y="87" type="line"/>
      <point x="309" y="87" type="line"/>
      <point x="309" y="0" type="line"/>
      <point x="15" y="0" type="line"/>
      <point x="15" y="87" type="line"/>
      <point x="99" y="87" type="line"/>
      <point x="99" y="434" type="line"/>
      <point x="15" y="434" type="line"/>
      <point x="15" y="524" type="line"/>
      <point x="214" y="524" type="line"/>
      <point x="204" y="388" type="line"/>
      <point x="237" y="496"/>
      <point x="305" y="532"/>
    </contour>
  </outline>
</glyph>
<glyph name="s" format="1">
  <advance width="537"/>
  <unicode hex="0073"/>
  <outline>
    <contour>
      <point x="344.042533945" y="57.0"/>
      <point x="373.0" y="88.3127059394"/>
      <point x="373" y="128" type="curve" smooth="yes"/>
      <point x="373" y="191"/>
      <point x="298" y="199"/>
      <point x="224" y="225" type="curve" smooth="yes"/>
      <point x="134" y="256"/>
      <point x="59" y="282"/>
      <point x="59" y="390" type="curve" smooth="yes"/>
      <point x="59" y="498"/>
      <point x="171" y="537"/>
      <point x="245" y="537" type="curve" smooth="yes"/>
      <point x="303" y="537"/>
      <point x="372" y="508"/>
      <point x="387" y="467" type="curve"/>
      <point x="397" y="524" type="line"/>
      <point x="472" y="524" type="line"/>
      <point x="472" y="340" type="line"/>
      <point x="395" y="340" type="line"/>
      <point x="378" y="419"/>
      <point x="337" y="464"/>
      <point x="255" y="464" type="curve" smooth="yes"/>
      <point x="213" y="464"/>
      <point x="177" y="446"/>
      <point x="177" y="411" type="curve" smooth="yes"/>
      <point x="177" y="366"/>
      <point x="215" y="359"/>
      <point x="290" y="336" type="curve" smooth="yes"/>
      <point x="381" y="308"/>
      <point x="496" y="281"/>
      <point x="496" y="152" type="curve" smooth="yes"/>
      <point x="496" y="36"/>
      <point x="415" y="-15"/>
      <point x="322" y="-15" type="curve" smooth="yes"/>
      <point x="252" y="-15"/>
      <point x="187" y="14"/>
      <point x="154" y="64" type="curve"/>
      <point x="150" y="0" type="line"/>
      <point x="73" y="0" type="line"/>
      <point x="73" y="198" type="line"/>
      <point x="164" y="198" type="line"/>
      <point x="176" y="101"/>
      <point x="241" y="57"/>
      <point x="297" y="57" type="curve" smooth="yes"/>
    </contour>
  </outline>
</glyph>
<glyph name="t" format="1">
  <advance width="429.454587908"/>
  <unicode hex="0074"/>
  <outline>
    <contour>
      <point x="93" y="457" type="line"/>
      <point x="-7" y="457" type="line"/>
      <point x="-7" y="510" type="line"/>
      <point x="140" y="553"/>
      <point x="151" y="651"/>
      <point x="181" y="777" type="curve" smooth="yes"/>
      <point x="183.58959622" y="787.876304125"/>
      <point x="193" y="794"/>
      <point x="203" y="794" type="curve" smooth="yes"/>
      <point x="213" y="794"/>
      <point x="222" y="788"/>
      <point x="222" y="777" type="curve" smooth="yes"/>
      <point x="222" y="524" type="line"/>
      <point x="365" y="524" type="line"/>
      <point x="365" y="456" type="line"/>
      <point x="222" y="456" type="line"/>
      <point x="222" y="149" type="line" smooth="yes"/>
      <point x="222" y="132"/>
      <point x="222" y="82"/>
      <point x="275" y="82" type="curve" smooth="yes"/>
      <point x="318" y="82"/>
      <point x="322" y="138"/>
      <point x="322" y="182" type="curve" smooth="yes"/>
      <point x="322" y="220" type="line"/>
      <point x="393" y="220" type="line"/>
      <point x="397" y="91"/>
      <point x="377" y="-13"/>
      <point x="236" y="-13" type="curve" smooth="yes"/>
      <point x="173" y="-13"/>
      <point x="93" y="31"/>
      <point x="93" y="136" type="curve" smooth="yes"/>
    </contour>
  </outline>
</glyph>
<glyph name="u" format="1">
  <advance width="687"/>
  <unicode hex="0075"/>
  <outline>
    <contour>
      <point x="231" y="524" type="line"/>
      <point x="231" y="167" type="line" smooth="yes"/>
      <point x="231" y="93"/>
      <point x="277" y="73"/>
      <point x="317" y="73" type="curve" smooth="yes"/>
      <point x="401" y="73"/>
      <point x="443.0" y="140.601571705"/>
      <point x="443" y="236" type="curve" smooth="yes"/>
      <point x="443" y="437" type="line"/>
      <point x="348" y="437" type="line"/>
      <point x="348" y="524" type="line"/>
      <point x="568" y="524" type="line"/>
      <point x="568" y="90" type="line"/>
      <point x="672" y="90" type="line"/>
      <point x="672" y="0" type="line"/>
      <point x="446" y="0" type="line"/>
      <point x="446" y="98" type="line"/>
      <point x="424" y="27"/>
      <point x="346" y="-13"/>
      <point x="281" y="-13" type="curve" smooth="yes"/>
      <point x="228" y="-13"/>
      <point x="106" y="3"/>
      <point x="106" y="171" type="curve" smooth="yes"/>
      <point x="106" y="437" type="line"/>
      <point x="9" y="437" type="line"/>
      <point x="9" y="524" type="line"/>
    </contour>
  </outline>
</glyph>
<glyph name="v" format="1">
  <advance width="668"/>
  <unicode hex="0076"/>
  <outline>
    <contour>
      <point x="275" y="8"/>
      <point x="297.0" y="-8.0"/>
      <point x="336" y="-8" type="curve" smooth="yes"/>
      <point x="378" y="-8"/>
      <point x="404" y="2"/>
      <point x="452" y="120" type="curve" smooth="yes"/>
      <point x="578" y="437" type="line" smooth="yes"/>
      <point x="662" y="437" type="line" smooth="yes"/>
      <point x="662" y="524" type="line" smooth="yes"/>
      <point x="392" y="524" type="line" smooth="yes"/>
      <point x="392" y="437" type="line" smooth="yes"/>
      <point x="465" y="437" type="line" smooth="yes"/>
      <point x="357" y="127" type="line" smooth="yes"/>
      <point x="249" y="437" type="line" smooth="yes"/>
      <point x="325" y="437" type="line" smooth="yes"/>
      <point x="325" y="524" type="line" smooth="yes"/>
      <point x="6" y="524" type="line" smooth="yes"/>
      <point x="6" y="437" type="line" smooth="yes"/>
      <point x="103" y="437" type="line" smooth="yes"/>
      <point x="237" y="107" type="line" smooth="yes"/>
    </contour>
  </outline>
</glyph>
<glyph name="y" format="1">
  <advance width="691"/>
  <unicode hex="0079"/>
  <outline>
    <contour>
      <point x="18" y="-201"/>
      <point x="90" y="-242"/>
      <point x="185" y="-242" type="curve" smooth="yes"/>
      <point x="323" y="-242"/>
      <point x="372" y="-112"/>
      <point x="413" y="-2" type="curve" smooth="yes"/>
      <point x="413" y="-2"/>
      <point x="583" y="437"/>
      <point x="583" y="437" type="curve" smooth="yes"/>
      <point x="667" y="437" type="line" smooth="yes"/>
      <point x="667" y="524" type="line" smooth="yes"/>
      <point x="397" y="524" type="line" smooth="yes"/>
      <point x="397" y="437" type="line" smooth="yes"/>
      <point x="470" y="437" type="line" smooth="yes"/>
      <point x="362" y="127" type="line" smooth="yes"/>
      <point x="254" y="437" type="line" smooth="yes"/>
      <point x="330" y="437" type="line" smooth="yes"/>
      <point x="330" y="524" type="line" smooth="yes"/>
      <point x="11" y="524" type="line" smooth="yes"/>
      <point x="11" y="437" type="line" smooth="yes"/>
      <point x="108" y="437" type="line" smooth="yes"/>
      <point x="108" y="437"/>
      <point x="285" y="0"/>
      <point x="285" y="0" type="curve" smooth="yes"/>
      <point x="260" y="-114"/>
      <point x="225" y="-173"/>
      <point x="168" y="-173" type="curve" smooth="yes"/>
      <point x="131.875216264" y="-173.0"/>
      <point x="118" y="-165"/>
      <point x="102" y="-149" type="curve"/>
      <point x="128" y="-149"/>
      <point x="168" y="-131"/>
      <point x="168" y="-87" type="curve" smooth="yes"/>
      <point x="168" y="-49"/>
      <point x="140" y="-24"/>
      <point x="99" y="-24" type="curve" smooth="yes"/>
      <point x="51" y="-24"/>
      <point x="18" y="-61"/>
      <point x="18" y="-102" type="curve" smooth="yes"/>
    </contour>
  </outline>
</glyph>
<glyph name="cedilla" format="1">
  <advance width="165"/>
  <unicode hex="00B8"/>
  <outline>
    <contour>
      <point x="150" y="-115" type="line" smooth="yes"/>
      <point x="150" y="-156"/>
      <point x="29" y="-187"/>
      <point x="29" y="-187" type="curve"/>
      <point x="15" y="-165" type="line"/>
      <point x="69" y="-138" type="line"/>
      <point x="69" y="-138"/>
      <point x="70" y="-134"/>
      <point x="70" y="-132" type="curve" smooth="yes"/>
      <point x="70" y="-108"/>
      <point x="41" y="-97"/>
      <point x="41" y="-72" type="curve" smooth="yes"/>
      <point x="41" y="0"/>
      <point x="146" y="1"/>
      <point x="150" y="0" type="curve"/>
    </contour>
  </outline>
</glyph>
<glyph name="ccedilla" format="1">
  <advance width="525"/>
  <unicode hex="00E7"/>
  <outline>
    <contour>
      <point x="446" y="188" type="curve"/>
      <point x="510" y="164" type="line"/>
      <point x="486" y="59"/>
      <point x="393" y="-13"/>
      <point x="273" y="-13" type="curve" smooth="yes"/>
      <point x="135" y="-13"/>
      <point x="15" y="91"/>
      <point x="15" y="252" type="curve" smooth="yes"/>
      <point x="15" y="401"/>
      <point x="112" y="539"/>
      <point x="287" y="539" type="curve" smooth="yes"/>
      <point x="379" y="539"/>
      <point x="497" y="495"/>
      <point x="497" y="369" type="curve" smooth="yes"/>
      <point x="497" y="336"/>
      <point x="473" y="296"/>
      <point x="421" y="296" type="curve" smooth="yes"/>
      <point x="382" y="296"/>
      <point x="352" y="317"/>
      <point x="352" y="353" type="curve" smooth="yes"/>
      <point x="352" y="407"/>
      <point x="404" y="423"/>
      <point x="404" y="423" type="curve"/>
      <point x="395" y="440"/>
      <point x="352" y="459"/>
      <point x="300" y="459" type="curve" smooth="yes"/>
      <point x="201" y="459"/>
      <point x="159" y="371"/>
      <point x="159" y="270" type="curve" smooth="yes"/>
      <point x="159" y="160"/>
      <point x="202" y="79"/>
      <point x="306" y="79" type="curve" smooth="yes"/>
      <point x="412" y="79"/>
      <point x="431" y="152"/>
    </contour>
    <contour>
      <point x="334" y="0" type="curve"/>
      <point x="334" y="-115" type="line" smooth="yes"/>
      <point x="334" y="-156"/>
      <point x="213" y="-187"/>
      <point x="213" y="-187" type="curve"/>
      <point x="199" y="-165" type="line"/>
      <point x="253" y="-138" type="line"/>
      <point x="253" y="-138"/>
      <point x="254" y="-134"/>
      <point x="254" y="-132" type="curve" smooth="yes"/>
      <point x="254" y="-108"/>
      <point x="225" y="-97"/>
      <point x="225" y="-72" type="curve" smooth="yes"/>
      <point x="225" y="0"/>
      <point x="330" y="1"/>
    </contour>
  </outline>
</glyph>
<glyph name="ydieresis" format="1">
  <advance width="938"/>
  <unicode hex="00FF"/>
  <outline>
    <contour>
      <point x="171" y="133" type="curve"/>
      <point x="165" y="294"/>
      <point x="161" y="451"/>
      <point x="152" y="610" type="curve"/>
      <point x="122" y="651"/>
      <point x="72" y="646"/>
      <point x="24" y="647" type="curve"/>
      <point x="15" y="656" type="line"/>
      <point x="15" y="739" type="line"/>
      <point x="98" y="744"/>
      <point x="187" y="749"/>
      <point x="272" y="749" type="curve" smooth="yes"/>
      <point x="282" y="749"/>
      <point x="308" y="748"/>
      <point x="308" y="748" type="curve"/>
      <point x="318" y="739" type="line"/>
      <point x="336" y="152" type="line" smooth="yes"/>
      <point x="338" y="100"/>
      <point x="396" y="95"/>
      <point x="432" y="95" type="curve" smooth="yes"/>
      <point x="544" y="95"/>
      <point x="611" y="213"/>
      <point x="611" y="317" type="curve" smooth="yes"/>
      <point x="611" y="601" type="line" smooth="yes"/>
      <point x="611" y="609"/>
      <point x="587" y="643"/>
      <point x="584" y="643" type="curve" smooth="yes"/>
      <point x="455" y="643" type="line"/>
      <point x="455" y="739" type="line"/>
      <point x="494" y="740"/>
      <point x="674" y="747"/>
      <point x="712" y="748" type="curve"/>
      <point x="767" y="748" type="line"/>
      <point x="770" y="746"/>
      <point x="776" y="733"/>
      <point x="776" y="730" type="curve" smooth="yes"/>
      <point x="777" y="721"/>
      <point x="776" y="647"/>
      <point x="776" y="638" type="curve" smooth="yes"/>
      <point x="777" y="560"/>
      <point x="784" y="193"/>
      <point x="786" y="115" type="curve"/>
      <point x="800" y="73"/>
      <point x="923" y="98"/>
      <point x="923" y="78" type="curve" smooth="yes"/>
      <point x="923" y="-4" type="line"/>
      <point x="616" y="-4" type="line"/>
      <point x="616" y="124" type="line"/>
      <point x="602" y="133" type="line"/>
      <point x="562" y="37"/>
      <point x="485" y="-14"/>
      <point x="384" y="-14" type="curve" smooth="yes"/>
      <point x="285" y="-14"/>
      <point x="196" y="30"/>
    </contour>
  </outline>
</glyph>
<glyph name="_11" format="1">
  <advance width="600"/>
  <outline>
    <contour>
      <point x="15" y="205" type="curve" smooth="yes"/>
      <point x="15" y="258"/>
      <point x="42" y="309"/>
      <point x="97" y="326" type="curve" smooth="yes"/>
      <point x="280" y="382" type="line" smooth="yes"/>
      <point x="317" y="393"/>
      <point x="342" y="426"/>
      <point x="342" y="464" type="curve" smooth="yes"/>
      <point x="342" y="528"/>
      <point x="291" y="541"/>
      <point x="237" y="541" type="curve" smooth="yes"/>
      <point x="205" y="541"/>
      <point x="153" y="543"/>
      <point x="133" y="510" type="curve"/>
      <point x="167" y="506"/>
      <point x="194" y="488"/>
      <point x="194" y="451" type="curve" smooth="yes"/>
      <point x="194" y="413"/>
      <point x="162" y="382"/>
      <point x="124" y="382" type="curve" smooth="yes"/>
      <point x="75" y="382"/>
      <point x="46" y="419"/>
      <point x="46" y="466" type="curve" smooth="yes"/>
      <point x="46" y="579"/>
      <point x="170" y="617"/>
      <point x="263" y="617" type="curve" smooth="yes"/>
      <point x="341" y="617"/>
      <point x="459" y="590"/>
      <point x="459" y="489" type="curve" smooth="yes"/>
      <point x="459" y="189" type="line" smooth="yes"/>
      <point x="459" y="178"/>
      <point x="472" y="168"/>
      <point x="481" y="168" type="curve" smooth="yes"/>
      <point x="524" y="168"/>
      <point x="523" y="250"/>
      <point x="525" y="270" type="curve"/>
      <point x="530" y="275" type="line"/>
      <point x="585" y="275" type="line"/>
      <point x="585" y="183"/>
      <point x="556" y="91"/>
      <point x="450" y="91" type="curve" smooth="yes"/>
      <point x="386" y="91"/>
      <point x="348" y="127"/>
      <point x="331" y="189" type="curve"/>
      <point x="331" y="188"/>
      <point x="327" y="184"/>
      <point x="326" y="183" type="curve" smooth="yes"/>
      <point x="280" y="119"/>
      <point x="240" y="81"/>
      <point x="157" y="81" type="curve" smooth="yes"/>
      <point x="79" y="81"/>
      <point x="15" y="123"/>
    </contour>
    <contour>
      <point x="127" y="215" type="curve" smooth="yes"/>
      <point x="127" y="179"/>
      <point x="151" y="158"/>
      <point x="186" y="158" type="curve" smooth="yes"/>
      <point x="249" y="158"/>
      <point x="291" y="207"/>
      <point x="331" y="250" type="curve" smooth="yes"/>
      <point x="349" y="269"/>
      <point x="343" y="341"/>
      <point x="343" y="362" type="curve"/>
      <point x="331" y="362" type="line"/>
      <point x="158" y="270" type="line" smooth="yes"/>
      <point x="140" y="261"/>
      <point x="127" y="234"/>
    </contour>
  </outline>
</glyph>
<glyph name="_19" format="1">
  <advance width="692"/>
  <outline>
    <contour>
      <point x="131" y="60" type="curve" smooth="yes"/>
      <point x="101" y="60"/>
      <point x="117" y="-14"/>
      <point x="52" y="-14" type="curve" smooth="yes"/>
      <point x="45" y="-14"/>
      <point x="28" y="-17"/>
      <point x="25" y="-4" type="curve"/>
      <point x="16" y="85"/>
      <point x="15" y="147"/>
      <point x="15" y="233" type="curve" smooth="yes"/>
      <point x="15" y="251"/>
      <point x="16" y="296"/>
      <point x="16" y="298" type="curve"/>
      <point x="25" y="308" type="line"/>
      <point x="98" y="308" type="line"/>
      <point x="148" y="180"/>
      <point x="236" y="87"/>
      <point x="381" y="87" type="curve" smooth="yes"/>
      <point x="436" y="87"/>
      <point x="521" y="102"/>
      <point x="521" y="175" type="curve" smooth="yes"/>
      <point x="521" y="205"/>
      <point x="495" y="235"/>
      <point x="465" y="243" type="curve" smooth="yes"/>
      <point x="172" y="326" type="line" smooth="yes"/>
      <point x="89" y="349"/>
      <point x="25" y="427"/>
      <point x="25" y="514" type="curve" smooth="yes"/>
      <point x="25" y="660"/>
      <point x="141" y="758"/>
      <point x="284" y="758" type="curve" smooth="yes"/>
      <point x="355" y="758"/>
      <point x="449" y="726"/>
      <point x="511" y="684" type="curve"/>
      <point x="551" y="708"/>
      <point x="522" y="740"/>
      <point x="576" y="740" type="curve" smooth="yes"/>
      <point x="654" y="740"/>
      <point x="623" y="587"/>
      <point x="623" y="547" type="curve" smooth="yes"/>
      <point x="623" y="526"/>
      <point x="622" y="468"/>
      <point x="621" y="464" type="curve"/>
      <point x="612" y="454" type="line"/>
      <point x="548" y="454" type="line" smooth="yes"/>
      <point x="547" y="454"/>
      <point x="540" y="461"/>
      <point x="539" y="464" type="curve" smooth="yes"/>
      <point x="478" y="565"/>
      <point x="423" y="648"/>
      <point x="295" y="648" type="curve" smooth="yes"/>
      <point x="236" y="648"/>
      <point x="180" y="632"/>
      <point x="180" y="564" type="curve" smooth="yes"/>
      <point x="180" y="526"/>
      <point x="188" y="525"/>
      <point x="227" y="510" type="curve"/>
      <point x="267" y="500"/>
      <point x="453" y="448"/>
      <point x="493" y="436" type="curve" smooth="yes"/>
      <point x="581" y="409"/>
      <point x="677" y="343"/>
      <point x="677" y="239" type="curve" smooth="yes"/>
      <point x="677" y="71"/>
      <point x="550" y="-24"/>
      <point x="389" y="-24" type="curve" smooth="yes"/>
      <point x="373" y="-24"/>
      <point x="330" y="-23"/>
      <point x="328" y="-23" type="curve" smooth="yes"/>
      <point x="288.811" y="-13.2028"/>
      <point x="202.491" y="16.8696"/>
      <point x="163" y="42" type="curve"/>
      <point x="151" y="48"/>
      <point x="144" y="60"/>
    </contour>
  </outline>
</glyph>
<glyph name="_20" format="1">
  <advance width="626"/>
  <outline>
    <contour>
      <point x="15" y="633" type="line"/>
      <point x="15" y="721" type="line"/>
      <point x="15" y="721"/>
      <point x="28" y="727"/>
      <point x="33" y="730" type="curve" smooth="yes"/>
      <point x="189" y="792"/>
      <point x="207" y="892"/>
      <point x="244" y="1042" type="curve" smooth="yes"/>
      <point x="245" y="1044"/>
      <point x="251" y="1051"/>
      <point x="253" y="1051" type="curve" smooth="yes"/>
      <point x="327" y="1051" type="line" smooth="yes"/>
      <point x="328" y="1051"/>
      <point x="334" y="1044"/>
      <point x="336" y="1042" type="curve" smooth="yes"/>
      <point x="339" y="1036"/>
      <point x="345" y="1017"/>
      <point x="345" y="1014" type="curve" smooth="yes"/>
      <point x="345" y="757" type="line"/>
      <point x="354" y="748" type="line"/>
      <point x="380" y="749"/>
      <point x="502" y="749"/>
      <point x="528" y="748" type="curve" smooth="yes"/>
      <point x="539" y="748"/>
      <point x="565" y="741"/>
      <point x="565" y="739" type="curve" smooth="yes"/>
      <point x="565" y="633" type="line"/>
      <point x="345" y="633" type="line"/>
      <point x="345" y="179" type="line" smooth="yes"/>
      <point x="345" y="139"/>
      <point x="369" y="105"/>
      <point x="409" y="105" type="curve" smooth="yes"/>
      <point x="509" y="105"/>
      <point x="506" y="282"/>
      <point x="510" y="344" type="curve"/>
      <point x="521" y="346"/>
      <point x="572" y="352"/>
      <point x="584" y="354" type="curve"/>
      <point x="589" y="354" type="line" smooth="yes"/>
      <point x="605" y="354"/>
      <point x="611" y="326"/>
      <point x="611" y="314" type="curve" smooth="yes"/>
      <point x="611" y="149"/>
      <point x="575" y="-23"/>
      <point x="380" y="-23" type="curve" smooth="yes"/>
      <point x="123" y="-23"/>
      <point x="166" y="170"/>
      <point x="161" y="363" type="curve"/>
      <point x="160" y="444"/>
      <point x="153" y="633"/>
      <point x="152" y="633" type="curve" smooth="yes"/>
    </contour>
  </outline>
</glyph>
<glyph name="_21" format="1">
  <advance width="784"/>
  <outline>
    <contour>
      <point x="15" y="387" type="curve" smooth="yes"/>
      <point x="15" y="610"/>
      <point x="193" y="758"/>
      <point x="405" y="758" type="curve" smooth="yes"/>
      <point x="637" y="758"/>
      <point x="769" y="572"/>
      <point x="769" y="357" type="curve" smooth="yes"/>
      <point x="769" y="145"/>
      <point x="603" y="-23"/>
      <point x="389" y="-23" type="curve" smooth="yes"/>
      <point x="155" y="-23"/>
      <point x="15" y="165"/>
    </contour>
    <contour>
      <point x="198" y="345" type="curve" smooth="yes"/>
      <point x="198" y="204"/>
      <point x="241" y="78"/>
      <point x="401" y="78" type="curve" smooth="yes"/>
      <point x="510" y="78"/>
      <point x="562" y="157"/>
      <point x="584" y="253" type="curve"/>
      <point x="585" y="269"/>
      <point x="585" y="346"/>
      <point x="585" y="363" type="curve" smooth="yes"/>
      <point x="585" y="503"/>
      <point x="566" y="657"/>
      <point x="390" y="657" type="curve" smooth="yes"/>
      <point x="213" y="657"/>
      <point x="198" y="483"/>
    </contour>
  </outline>
</glyph>
<glyph name="_23" format="1">
  <advance width="480"/>
  <outline>
    <contour>
      <point x="15" y="5" type="line"/>
      <point x="15" y="87" type="line" smooth="yes"/>
      <point x="15" y="116"/>
      <point x="161" y="49"/>
      <point x="161" y="198" type="curve" smooth="yes"/>
      <point x="161" y="610" type="line" smooth="yes"/>
      <point x="161" y="619"/>
      <point x="132" y="637"/>
      <point x="125" y="638" type="curve" smooth="yes"/>
      <point x="111" y="640"/>
      <point x="47" y="647"/>
      <point x="33" y="647" type="curve"/>
      <point x="30" y="649"/>
      <point x="24" y="662"/>
      <point x="24" y="665" type="curve" smooth="yes"/>
      <point x="24" y="686"/>
      <point x="30" y="737"/>
      <point x="33" y="739" type="curve" smooth="yes"/>
      <point x="51" y="748" type="line"/>
      <point x="336" y="739" type="line"/>
      <point x="336" y="601" type="line" smooth="yes"/>
      <point x="336" y="456"/>
      <point x="326" y="311"/>
      <point x="326" y="166" type="curve" smooth="yes"/>
      <point x="326" y="94"/>
      <point x="395" y="92"/>
      <point x="455" y="87" type="curve"/>
      <point x="462" y="72"/>
      <point x="465" y="65"/>
      <point x="465" y="51" type="curve" smooth="yes"/>
      <point x="465" y="34"/>
      <point x="461" y="24"/>
      <point x="455" y="5" type="curve"/>
      <point x="405" y="3"/>
      <point x="174" y="-3"/>
      <point x="125" y="-4" type="curve" smooth="yes"/>
      <point x="119" y="-4"/>
      <point x="76" y="-5"/>
      <point x="63" y="-5" type="curve" smooth="yes"/>
      <point x="52" y="-5"/>
      <point x="24" y="-4"/>
      <point x="24" y="-4" type="curve"/>
    </contour>
    <contour>
      <point x="160" y="966" type="curve" smooth="yes"/>
      <point x="160" y="1029"/>
      <point x="198" y="1061"/>
      <point x="259" y="1061" type="curve" smooth="yes"/>
      <point x="322" y="1061"/>
      <point x="355" y="1029"/>
      <point x="355" y="969" type="curve" smooth="yes"/>
      <point x="355" y="909"/>
      <point x="325" y="858"/>
      <point x="258" y="858" type="curve" smooth="yes"/>
      <point x="190" y="858"/>
      <point x="160" y="907"/>
    </contour>
  </outline>
</glyph>
<glyph name="_25" format="1">
  <advance width="371"/>
  <outline>
    <contour>
      <point x="25" y="4" type="curve"/>
      <point x="25" y="8"/>
      <point x="24" y="28"/>
      <point x="24" y="32" type="curve" smooth="yes"/>
      <point x="24" y="128"/>
      <point x="126" y="-17"/>
      <point x="126" y="194" type="curve" smooth="yes"/>
      <point x="126" y="278"/>
      <point x="124" y="328"/>
      <point x="117" y="426" type="curve"/>
      <point x="94" y="490"/>
      <point x="15" y="428"/>
      <point x="15" y="500" type="curve" smooth="yes"/>
      <point x="15" y="507"/>
      <point x="15" y="526"/>
      <point x="16" y="527" type="curve"/>
      <point x="16" y="530"/>
      <point x="23" y="536"/>
      <point x="25" y="536" type="curve" smooth="yes"/>
      <point x="236" y="536" type="line"/>
      <point x="241" y="415"/>
      <point x="222" y="217"/>
      <point x="254" y="87" type="curve" smooth="yes"/>
      <point x="265" y="43"/>
      <point x="356" y="91"/>
      <point x="356" y="37" type="curve" smooth="yes"/>
      <point x="356" y="21"/>
      <point x="351" y="4"/>
      <point x="337" y="-5" type="curve"/>
      <point x="263" y="-5" type="line" smooth="yes"/>
      <point x="172" y="-5"/>
      <point x="130" y="-4"/>
    </contour>
    <contour>
      <point x="97" y="712" type="curve" smooth="yes"/>
      <point x="97" y="767"/>
      <point x="132" y="785"/>
      <point x="180" y="785" type="curve" smooth="yes"/>
      <point x="223" y="785"/>
      <point x="246" y="762"/>
      <point x="246" y="719" type="curve" smooth="yes"/>
      <point x="246" y="665"/>
      <point x="224" y="636"/>
      <point x="168" y="636" type="curve" smooth="yes"/>
      <point x="127" y="636"/>
      <point x="97" y="672"/>
    </contour>
  </outline>
</glyph>
<glyph name="_26" format="1">
  <advance width="554"/>
  <outline>
    <contour>
      <point x="25.2988" y="-5" type="line"/>
      <point x="25.2988" y="59" type="line" smooth="yes"/>
      <point x="25.2988" y="76"/>
      <point x="126.299" y="58"/>
      <point x="126.299" y="96" type="curve" smooth="yes"/>
      <point x="126.299" y="399" type="line" smooth="yes"/>
      <point x="126.299" y="403"/>
      <point x="115.299" y="458"/>
      <point x="98.2988" y="458" type="curve" smooth="yes"/>
      <point x="25.2988" y="458" type="line" smooth="yes"/>
      <point x="12.2988" y="458"/>
      <point x="15.2988" y="495"/>
      <point x="15.2988" y="495" type="curve"/>
      <point x="15.2988" y="536"/>
      <point x="32.2988" y="534"/>
      <point x="80.2988" y="536" type="curve" smooth="yes"/>
      <point x="104.299" y="537"/>
      <point x="216.299" y="540"/>
      <point x="240.299" y="540" type="curve"/>
      <point x="240.299" y="408" type="line"/>
      <point x="283.299" y="415"/>
      <point x="280.299" y="547"/>
      <point x="412.299" y="547" type="curve" smooth="yes"/>
      <point x="487.299" y="547"/>
      <point x="539.299" y="502"/>
      <point x="539.299" y="421" type="curve" smooth="yes"/>
      <point x="539.299" y="379"/>
      <point x="496.299" y="343"/>
      <point x="456.299" y="343" type="curve" smooth="yes"/>
      <point x="422.299" y="343"/>
      <point x="391.299" y="368"/>
      <point x="391.299" y="403" type="curve" smooth="yes"/>
      <point x="391.299" y="433"/>
      <point x="429.299" y="446"/>
      <point x="429.299" y="467" type="curve" smooth="yes"/>
      <point x="429.299" y="485"/>
      <point x="408.299" y="482"/>
      <point x="397.299" y="482" type="curve" smooth="yes"/>
      <point x="268.299" y="482"/>
      <point x="254.299" y="268"/>
      <point x="254.299" y="179" type="curve" smooth="yes"/>
      <point x="254.299" y="105" type="line"/>
      <point x="269.299" y="64"/>
      <point x="318.299" y="63"/>
      <point x="355.299" y="59" type="curve"/>
      <point x="355.299" y="-5" type="line"/>
    </contour>
  </outline>
</glyph>
<glyph name="_27" format="1">
  <advance width="619"/>
  <outline>
    <contour>
      <point x="15" y="128" type="curve" smooth="yes"/>
      <point x="15" y="349"/>
      <point x="328" y="273"/>
      <point x="328" y="380" type="curve" smooth="yes"/>
      <point x="328" y="448"/>
      <point x="288" y="473"/>
      <point x="225" y="473" type="curve" smooth="yes"/>
      <point x="214" y="473"/>
      <point x="144" y="479"/>
      <point x="144" y="449" type="curve" smooth="yes"/>
      <point x="144" y="427"/>
      <point x="164" y="418"/>
      <point x="164" y="391" type="curve" smooth="yes"/>
      <point x="164" y="346"/>
      <point x="145" y="323"/>
      <point x="97" y="323" type="curve" smooth="yes"/>
      <point x="50" y="323"/>
      <point x="25" y="364"/>
      <point x="25" y="408" type="curve" smooth="yes"/>
      <point x="25" y="518"/>
      <point x="166" y="537"/>
      <point x="246" y="537" type="curve" smooth="yes"/>
      <point x="333" y="537"/>
      <point x="452" y="516"/>
      <point x="452" y="399" type="curve" smooth="yes"/>
      <point x="452" y="105" type="line" smooth="yes"/>
      <point x="452" y="85"/>
      <point x="477" y="77"/>
      <point x="493" y="77" type="curve" smooth="yes"/>
      <point x="557" y="77"/>
      <point x="547" y="184"/>
      <point x="548" y="215" type="curve"/>
      <point x="552" y="215"/>
      <point x="568" y="216"/>
      <point x="571" y="216" type="curve" smooth="yes"/>
      <point x="577" y="216"/>
      <point x="601" y="220"/>
      <point x="603" y="206" type="curve" smooth="yes"/>
      <point x="604" y="196"/>
      <point x="604" y="151"/>
      <point x="604" y="142" type="curve" smooth="yes"/>
      <point x="604" y="50"/>
      <point x="585" y="-6"/>
      <point x="483" y="-6" type="curve" smooth="yes"/>
      <point x="376" y="-6"/>
      <point x="344" y="70"/>
      <point x="328" y="70" type="curve" smooth="yes"/>
      <point x="316" y="70"/>
      <point x="251" y="-15"/>
      <point x="163" y="-15" type="curve" smooth="yes"/>
      <point x="80" y="-15"/>
      <point x="15" y="38"/>
    </contour>
    <contour>
      <point x="145" y="151" type="curve" smooth="yes"/>
      <point x="145" y="116"/>
      <point x="166" y="77"/>
      <point x="204" y="77" type="curve" smooth="yes"/>
      <point x="300" y="77"/>
      <point x="329" y="157"/>
      <point x="329" y="240" type="curve" smooth="yes"/>
      <point x="329" y="266"/>
      <point x="327" y="271"/>
      <point x="301" y="271" type="curve" smooth="yes"/>
      <point x="237" y="271"/>
      <point x="145" y="226"/>
    </contour>
  </outline>
</glyph>
<glyph name="_28" format="1">
  <advance width="1041"/>
  <outline>
    <contour>
      <point x="15" y="38" type="curve" smooth="yes"/>
      <point x="15" y="44"/>
      <point x="16" y="59"/>
      <point x="17" y="59" type="curve" smooth="yes"/>
      <point x="117" y="79" type="line"/>
      <point x="117" y="426" type="line" smooth="yes"/>
      <point x="117" y="487"/>
      <point x="15" y="410"/>
      <point x="15" y="505" type="curve" smooth="yes"/>
      <point x="15" y="511"/>
      <point x="16" y="526"/>
      <point x="17" y="527" type="curve" smooth="yes"/>
      <point x="35" y="536" type="line"/>
      <point x="250" y="536" type="line"/>
      <point x="250" y="463" type="line"/>
      <point x="264" y="463" type="line"/>
      <point x="308" y="512"/>
      <point x="351" y="555"/>
      <point x="420" y="555" type="curve" smooth="yes"/>
      <point x="534" y="555"/>
      <point x="520" y="479"/>
      <point x="585" y="435" type="curve"/>
      <point x="666" y="490"/>
      <point x="606" y="547"/>
      <point x="765" y="547" type="curve" smooth="yes"/>
      <point x="840" y="547"/>
      <point x="901" y="515"/>
      <point x="916" y="435" type="curve"/>
      <point x="917" y="400"/>
      <point x="924" y="233"/>
      <point x="925" y="197" type="curve" smooth="yes"/>
      <point x="925" y="192"/>
      <point x="916" y="73"/>
      <point x="952" y="73" type="curve" smooth="yes"/>
      <point x="1026" y="73" type="line"/>
      <point x="1026" y="-5" type="line"/>
      <point x="714" y="-5" type="line"/>
      <point x="714" y="59" type="line"/>
      <point x="756" y="68"/>
      <point x="783" y="67"/>
      <point x="796" y="105" type="curve"/>
      <point x="797" y="125"/>
      <point x="797" y="218"/>
      <point x="797" y="238" type="curve" smooth="yes"/>
      <point x="797" y="293"/>
      <point x="826" y="473"/>
      <point x="722" y="473" type="curve" smooth="yes"/>
      <point x="585" y="473"/>
      <point x="585" y="296"/>
      <point x="585" y="200" type="curve" smooth="yes"/>
      <point x="585" y="-14"/>
      <point x="678" y="118"/>
      <point x="678" y="31" type="curve" smooth="yes"/>
      <point x="678" y="20"/>
      <point x="679" y="-5"/>
      <point x="659" y="-5" type="curve" smooth="yes"/>
      <point x="383" y="-5" type="line" smooth="yes"/>
      <point x="368" y="-5"/>
      <point x="364" y="32"/>
      <point x="364" y="41" type="curve" smooth="yes"/>
      <point x="364" y="44"/>
      <point x="365" y="57"/>
      <point x="365" y="59" type="curve"/>
      <point x="408" y="69"/>
      <point x="457" y="64"/>
      <point x="457" y="123" type="curve" smooth="yes"/>
      <point x="457" y="390" type="line" smooth="yes"/>
      <point x="457" y="447"/>
      <point x="432" y="473"/>
      <point x="379" y="473" type="curve" smooth="yes"/>
      <point x="259" y="473"/>
      <point x="246" y="311"/>
      <point x="246" y="224" type="curve" smooth="yes"/>
      <point x="246" y="205"/>
      <point x="252" y="115"/>
      <point x="255" y="96" type="curve"/>
      <point x="278" y="57"/>
      <point x="339" y="86"/>
      <point x="339" y="32" type="curve" smooth="yes"/>
      <point x="339" y="21"/>
      <point x="339" y="-5"/>
      <point x="319" y="-5" type="curve" smooth="yes"/>
      <point x="26" y="-5" type="line" smooth="yes"/>
      <point x="23" y="-5"/>
      <point x="17" y="1"/>
      <point x="17" y="4" type="curve"/>
      <point x="16" y="6"/>
      <point x="15" y="30"/>
    </contour>
  </outline>
</glyph>
<glyph name="_29" format="1">
  <advance width="609"/>
  <outline>
    <contour>
      <point x="15" y="125" type="curve" smooth="yes"/>
      <point x="15" y="283"/>
      <point x="185" y="314"/>
      <point x="309" y="344" type="curve"/>
      <point x="323" y="346"/>
      <point x="319" y="368"/>
      <point x="319" y="374" type="curve" smooth="yes"/>
      <point x="319" y="449"/>
      <point x="296" y="473"/>
      <point x="221" y="473" type="curve" smooth="yes"/>
      <point x="200" y="473"/>
      <point x="164" y="476"/>
      <point x="144" y="463" type="curve"/>
      <point x="144" y="459" type="line" smooth="yes"/>
      <point x="144" y="435"/>
      <point x="163" y="416"/>
      <point x="163" y="390" type="curve" smooth="yes"/>
      <point x="163" y="349"/>
      <point x="133" y="325"/>
      <point x="93" y="325" type="curve" smooth="yes"/>
      <point x="43" y="325"/>
      <point x="24" y="364"/>
      <point x="24" y="408" type="curve" smooth="yes"/>
      <point x="24" y="515"/>
      <point x="154" y="546"/>
      <point x="240" y="546" type="curve" smooth="yes"/>
      <point x="292" y="546"/>
      <point x="442" y="530"/>
      <point x="442" y="445" type="curve" smooth="yes"/>
      <point x="442" y="123" type="line" smooth="yes"/>
      <point x="442" y="97"/>
      <point x="463" y="86"/>
      <point x="483" y="86" type="curve" smooth="yes"/>
      <point x="539" y="86"/>
      <point x="539" y="182"/>
      <point x="538" y="215" type="curve"/>
      <point x="541" y="228"/>
      <point x="559" y="225"/>
      <point x="566" y="225" type="curve" smooth="yes"/>
      <point x="569" y="225"/>
      <point x="594" y="228"/>
      <point x="594" y="215" type="curve" smooth="yes"/>
      <point x="594" y="87" type="line" smooth="yes"/>
      <point x="594" y="15"/>
      <point x="506" y="-5"/>
      <point x="455" y="-5" type="curve" smooth="yes"/>
      <point x="387" y="-5"/>
      <point x="337" y="79"/>
      <point x="323" y="79" type="curve" smooth="yes"/>
      <point x="322" y="79"/>
      <point x="319" y="78"/>
      <point x="318" y="78" type="curve" smooth="yes"/>
      <point x="310" y="67"/>
      <point x="265" y="22"/>
      <point x="254" y="13" type="curve" smooth="yes"/>
      <point x="247" y="8"/>
      <point x="222" y="-5"/>
      <point x="217" y="-5" type="curve" smooth="yes"/>
      <point x="98" y="-5" type="line" smooth="yes"/>
      <point x="41" y="-5"/>
      <point x="15" y="85"/>
    </contour>
    <contour>
      <point x="143" y="152" type="curve" smooth="yes"/>
      <point x="143" y="123"/>
      <point x="146" y="105"/>
      <point x="171" y="87" type="curve"/>
      <point x="176" y="86"/>
      <point x="199" y="85"/>
      <point x="204" y="85" type="curve" smooth="yes"/>
      <point x="290" y="85"/>
      <point x="319" y="157"/>
      <point x="319" y="234" type="curve" smooth="yes"/>
      <point x="319" y="239"/>
      <point x="319" y="265"/>
      <point x="318" y="270" type="curve"/>
      <point x="314" y="279"/>
      <point x="311" y="280"/>
      <point x="305" y="280" type="curve" smooth="yes"/>
      <point x="231" y="280"/>
      <point x="143" y="233"/>
    </contour>
  </outline>
</glyph>
<glyph name="_30" format="1">
  <advance width="545"/>
  <outline>
    <contour>
      <point x="116.299" y="114" type="curve"/>
      <point x="119.299" y="138"/>
      <point x="125.299" y="247"/>
      <point x="125.299" y="270" type="curve" smooth="yes"/>
      <point x="125.299" y="296"/>
      <point x="119.299" y="418"/>
      <point x="116.299" y="445" type="curve"/>
      <point x="99.2988" y="471"/>
      <point x="45.2988" y="471"/>
      <point x="25.2988" y="472" type="curve"/>
      <point x="14.2988" y="484"/>
      <point x="15.2988" y="495"/>
      <point x="15.2988" y="509" type="curve" smooth="yes"/>
      <point x="15.2988" y="516"/>
      <point x="12.2988" y="534"/>
      <point x="25.2988" y="536" type="curve" smooth="yes"/>
      <point x="97.2988" y="544"/>
      <point x="168.299" y="548"/>
      <point x="240.299" y="548" type="curve"/>
      <point x="240.299" y="435" type="line"/>
      <point x="254.299" y="435" type="line"/>
      <point x="288.299" y="514"/>
      <point x="331.299" y="556"/>
      <point x="415.299" y="556" type="curve" smooth="yes"/>
      <point x="479.299" y="556"/>
      <point x="530.299" y="514"/>
      <point x="530.299" y="444" type="curve" smooth="yes"/>
      <point x="530.299" y="404"/>
      <point x="494.299" y="352"/>
      <point x="451.299" y="352" type="curve" smooth="yes"/>
      <point x="415.299" y="352"/>
      <point x="390.299" y="381"/>
      <point x="390.299" y="416" type="curve" smooth="yes"/>
      <point x="390.299" y="447"/>
      <point x="406.299" y="459"/>
      <point x="406.299" y="487" type="curve"/>
      <point x="259.299" y="487"/>
      <point x="244.299" y="264"/>
      <point x="244.299" y="158" type="curve" smooth="yes"/>
      <point x="244.299" y="149"/>
      <point x="239.299" y="92"/>
      <point x="263.299" y="87" type="curve" smooth="yes"/>
      <point x="346.299" y="68" type="line"/>
      <point x="346.299" y="68"/>
      <point x="347.299" y="58"/>
      <point x="347.299" y="54" type="curve" smooth="yes"/>
      <point x="347.299" y="36"/>
      <point x="344.299" y="4"/>
      <point x="318.299" y="4" type="curve" smooth="yes"/>
      <point x="15.2988" y="4" type="line"/>
      <point x="15.2988" y="68" type="line" smooth="yes"/>
      <point x="15.2988" y="80"/>
      <point x="101.299" y="70"/>
    </contour>
  </outline>
</glyph>
<glyph name="_31" format="1">
  <advance width="518"/>
  <outline>
    <contour>
      <point x="16" y="206" type="curve"/>
      <point x="16" y="216"/>
      <point x="15" y="265"/>
      <point x="15" y="275" type="curve" smooth="yes"/>
      <point x="15" y="427"/>
      <point x="110" y="556"/>
      <point x="271" y="556" type="curve" smooth="yes"/>
      <point x="426" y="556"/>
      <point x="503" y="433"/>
      <point x="503" y="287" type="curve" smooth="yes"/>
      <point x="503" y="272"/>
      <point x="488" y="266"/>
      <point x="475" y="261" type="curve"/>
      <point x="454" y="262"/>
      <point x="358" y="262"/>
      <point x="337" y="261" type="curve" smooth="yes"/>
      <point x="281" y="259"/>
      <point x="146" y="253"/>
      <point x="145" y="252" type="curve" smooth="yes"/>
      <point x="136" y="243" type="line" smooth="yes"/>
      <point x="135" y="241"/>
      <point x="134" y="223"/>
      <point x="134" y="217" type="curve" smooth="yes"/>
      <point x="134" y="126"/>
      <point x="189" y="86"/>
      <point x="276" y="86" type="curve" smooth="yes"/>
      <point x="392" y="86"/>
      <point x="406" y="207"/>
      <point x="465" y="207" type="curve" smooth="yes"/>
      <point x="468" y="207"/>
      <point x="493" y="210"/>
      <point x="493" y="197" type="curve" smooth="yes"/>
      <point x="493" y="101"/>
      <point x="342" y="13"/>
      <point x="255" y="13" type="curve" smooth="yes"/>
      <point x="143" y="13"/>
      <point x="41" y="96"/>
    </contour>
    <contour>
      <point x="135" y="357" type="curve" smooth="yes"/>
      <point x="135" y="336"/>
      <point x="152" y="325"/>
      <point x="172" y="325" type="curve" smooth="yes"/>
      <point x="185" y="325"/>
      <point x="246" y="324"/>
      <point x="259" y="324" type="curve" smooth="yes"/>
      <point x="293" y="324"/>
      <point x="409" y="302"/>
      <point x="402" y="371" type="curve" smooth="yes"/>
      <point x="394" y="448"/>
      <point x="337" y="482"/>
      <point x="268" y="482" type="curve" smooth="yes"/>
      <point x="198" y="482"/>
      <point x="135" y="434"/>
    </contour>
  </outline>
</glyph>
<glyph name="_32" format="1">
  <advance width="591"/>
  <outline>
    <contour>
      <point x="15" y="331" type="curve" smooth="yes"/>
      <point x="15" y="492"/>
      <point x="117" y="643"/>
      <point x="291" y="643" type="curve" smooth="yes"/>
      <point x="360" y="643"/>
      <point x="448" y="578"/>
      <point x="470" y="578" type="curve" smooth="yes"/>
      <point x="501" y="578"/>
      <point x="485" y="643"/>
      <point x="530" y="643" type="curve" smooth="yes"/>
      <point x="543" y="643"/>
      <point x="549" y="640"/>
      <point x="557" y="624" type="curve"/>
      <point x="560" y="573"/>
      <point x="567" y="477"/>
      <point x="567" y="409" type="curve" smooth="yes"/>
      <point x="567" y="379"/>
      <point x="565" y="375"/>
      <point x="534" y="375" type="curve" smooth="yes"/>
      <point x="468" y="375"/>
      <point x="444" y="578"/>
      <point x="309" y="578" type="curve" smooth="yes"/>
      <point x="179" y="578"/>
      <point x="140" y="451"/>
      <point x="144" y="339" type="curve" smooth="yes"/>
      <point x="149" y="226"/>
      <point x="184" y="64"/>
      <point x="328" y="64" type="curve" smooth="yes"/>
      <point x="451" y="64"/>
      <point x="504" y="179"/>
      <point x="511" y="284" type="curve"/>
      <point x="523" y="295"/>
      <point x="534" y="294"/>
      <point x="548" y="294" type="curve" smooth="yes"/>
      <point x="556" y="294"/>
      <point x="573" y="297"/>
      <point x="576" y="284" type="curve"/>
      <point x="576" y="248" type="line" smooth="yes"/>
      <point x="576" y="99"/>
      <point x="472" y="-1"/>
      <point x="328" y="-1" type="curve" smooth="yes"/>
      <point x="137" y="-1"/>
      <point x="15" y="143"/>
    </contour>
  </outline>
</glyph>
<glyph name="_33" format="1">
  <advance width="444"/>
  <outline>
    <contour>
      <point x="15" y="235" type="curve" smooth="yes"/>
      <point x="15" y="351"/>
      <point x="109" y="441"/>
      <point x="223" y="441" type="curve" smooth="yes"/>
      <point x="325" y="441"/>
      <point x="429" y="343"/>
      <point x="429" y="238" type="curve" smooth="yes"/>
      <point x="429" y="234"/>
      <point x="432" y="211"/>
      <point x="420" y="211" type="curve" smooth="yes"/>
      <point x="135" y="211" type="line"/>
      <point x="117" y="202" type="line" smooth="yes"/>
      <point x="117" y="201"/>
      <point x="116" y="189"/>
      <point x="116" y="184" type="curve" smooth="yes"/>
      <point x="116" y="105"/>
      <point x="169" y="45"/>
      <point x="250" y="45" type="curve" smooth="yes"/>
      <point x="350" y="45"/>
      <point x="359" y="166"/>
      <point x="411" y="166" type="curve" smooth="yes"/>
      <point x="423" y="166"/>
      <point x="429" y="160"/>
      <point x="429" y="147" type="curve" smooth="yes"/>
      <point x="429" y="48"/>
      <point x="323" y="-10"/>
      <point x="238" y="-10" type="curve" smooth="yes"/>
      <point x="97" y="-10"/>
      <point x="15" y="101"/>
    </contour>
    <contour>
      <point x="126" y="266" type="curve" smooth="yes"/>
      <point x="181" y="256"/>
      <point x="208" y="256"/>
      <point x="259" y="256" type="curve" smooth="yes"/>
      <point x="267" y="256"/>
      <point x="302" y="257"/>
      <point x="309" y="257" type="curve"/>
      <point x="319" y="264"/>
      <point x="328" y="269"/>
      <point x="328" y="280" type="curve" smooth="yes"/>
      <point x="328" y="344"/>
      <point x="268" y="377"/>
      <point x="216" y="377" type="curve" smooth="yes"/>
      <point x="162" y="377"/>
      <point x="116" y="353"/>
      <point x="116" y="289" type="curve" smooth="yes"/>
      <point x="116" y="281"/>
      <point x="114" y="269"/>
    </contour>
  </outline>
</glyph>
<glyph name="_34" format="1">
  <advance width="573"/>
  <outline>
    <contour>
      <point x="16" y="33" type="line" smooth="yes"/>
      <point x="16" y="66"/>
      <point x="89" y="36"/>
      <point x="89" y="64" type="curve" smooth="yes"/>
      <point x="89" y="303" type="line" smooth="yes"/>
      <point x="89" y="373"/>
      <point x="15" y="341"/>
      <point x="15" y="395" type="curve" smooth="yes"/>
      <point x="15" y="397"/>
      <point x="16" y="410"/>
      <point x="16" y="413" type="curve"/>
      <point x="50" y="425"/>
      <point x="81" y="423"/>
      <point x="117" y="423" type="curve" smooth="yes"/>
      <point x="125" y="423"/>
      <point x="164" y="422"/>
      <point x="172" y="422" type="curve"/>
      <point x="194" y="413"/>
      <point x="177" y="366"/>
      <point x="204" y="366" type="curve" smooth="yes"/>
      <point x="217" y="366"/>
      <point x="280" y="432"/>
      <point x="346" y="432" type="curve" smooth="yes"/>
      <point x="529" y="432"/>
      <point x="479" y="201"/>
      <point x="484" y="83" type="curve"/>
      <point x="490" y="38"/>
      <point x="558" y="68"/>
      <point x="558" y="23" type="curve" smooth="yes"/>
      <point x="558" y="18"/>
      <point x="559" y="0"/>
      <point x="548" y="0" type="curve" smooth="yes"/>
      <point x="328" y="0" type="line" smooth="yes"/>
      <point x="313" y="0"/>
      <point x="308" y="17"/>
      <point x="308" y="28" type="curve" smooth="yes"/>
      <point x="308" y="56"/>
      <point x="370" y="47"/>
      <point x="383" y="83" type="curve"/>
      <point x="383" y="94"/>
      <point x="384" y="149"/>
      <point x="384" y="161" type="curve" smooth="yes"/>
      <point x="384" y="218"/>
      <point x="410" y="386"/>
      <point x="310" y="386" type="curve" smooth="yes"/>
      <point x="200" y="386"/>
      <point x="189" y="242"/>
      <point x="189" y="165" type="curve" smooth="yes"/>
      <point x="189" y="153"/>
      <point x="190" y="95"/>
      <point x="190" y="83" type="curve"/>
      <point x="203" y="47"/>
      <point x="223" y="48"/>
      <point x="264" y="46" type="curve"/>
      <point x="266" y="42"/>
      <point x="273" y="23"/>
      <point x="273" y="18" type="curve" smooth="yes"/>
      <point x="273" y="13"/>
      <point x="266" y="0"/>
      <point x="264" y="0" type="curve" smooth="yes"/>
      <point x="25" y="0" type="line" smooth="yes"/>
      <point x="24" y="0"/>
      <point x="18" y="19"/>
      <point x="16" y="28" type="curve"/>
    </contour>
  </outline>
</glyph>
<glyph name="_35" format="1">
  <advance width="446"/>
  <outline>
    <contour>
      <point x="15" y="211" type="curve" smooth="yes"/>
      <point x="15" y="329"/>
      <point x="97" y="432"/>
      <point x="217" y="432" type="curve" smooth="yes"/>
      <point x="324" y="432"/>
      <point x="429" y="349"/>
      <point x="429" y="233" type="curve" smooth="yes"/>
      <point x="429" y="228"/>
      <point x="430" y="206"/>
      <point x="419" y="206" type="curve" smooth="yes"/>
      <point x="117" y="206" type="line"/>
      <point x="107" y="193" type="line" smooth="yes"/>
      <point x="107" y="192"/>
      <point x="113" y="160"/>
      <point x="117" y="147" type="curve" smooth="yes"/>
      <point x="134" y="78"/>
      <point x="176" y="45"/>
      <point x="245" y="45" type="curve" smooth="yes"/>
      <point x="371" y="45"/>
      <point x="342" y="160"/>
      <point x="431" y="160" type="curve"/>
      <point x="431" y="60"/>
      <point x="333" y="-19"/>
      <point x="238" y="-19" type="curve" smooth="yes"/>
      <point x="114" y="-19"/>
      <point x="15" y="87"/>
    </contour>
    <contour>
      <point x="116" y="279" type="curve" smooth="yes"/>
      <point x="116" y="274"/>
      <point x="114" y="257"/>
      <point x="126" y="257" type="curve" smooth="yes"/>
      <point x="330" y="257" type="line"/>
      <point x="330" y="317"/>
      <point x="287" y="377"/>
      <point x="223" y="377" type="curve" smooth="yes"/>
      <point x="165" y="377"/>
      <point x="116" y="341"/>
    </contour>
  </outline>
</glyph>
<glyph name="_36" format="1">
  <advance width="435"/>
  <outline>
    <contour>
      <point x="34" y="0" type="curve"/>
      <point x="23" y="3"/>
      <point x="24" y="15"/>
      <point x="24" y="23" type="curve" smooth="yes"/>
      <point x="24" y="25"/>
      <point x="25" y="35"/>
      <point x="25" y="37" type="curve"/>
      <point x="35" y="39"/>
      <point x="80" y="52"/>
      <point x="89" y="55" type="curve" smooth="yes"/>
      <point x="92" y="56"/>
      <point x="98" y="63"/>
      <point x="98" y="64" type="curve" smooth="yes"/>
      <point x="98" y="339" type="line" smooth="yes"/>
      <point x="98" y="378"/>
      <point x="15" y="346"/>
      <point x="15" y="390" type="curve" smooth="yes"/>
      <point x="15" y="397"/>
      <point x="20" y="413"/>
      <point x="25" y="413" type="curve" smooth="yes"/>
      <point x="181" y="413" type="line"/>
      <point x="181" y="413"/>
      <point x="187" y="355"/>
      <point x="190" y="330" type="curve" smooth="yes"/>
      <point x="191" y="320"/>
      <point x="186" y="318"/>
      <point x="199" y="312" type="curve"/>
      <point x="223" y="369"/>
      <point x="268" y="423"/>
      <point x="332" y="423" type="curve" smooth="yes"/>
      <point x="378" y="423"/>
      <point x="420" y="399"/>
      <point x="420" y="348" type="curve" smooth="yes"/>
      <point x="420" y="314"/>
      <point x="400" y="275"/>
      <point x="360" y="275" type="curve" smooth="yes"/>
      <point x="356" y="275"/>
      <point x="314" y="284"/>
      <point x="314" y="294" type="curve" smooth="yes"/>
      <point x="314" y="364" type="line"/>
      <point x="314" y="364"/>
      <point x="298" y="369"/>
      <point x="291" y="367" type="curve" smooth="yes"/>
      <point x="201" y="347"/>
      <point x="199" y="178"/>
      <point x="199" y="124" type="curve" smooth="yes"/>
      <point x="199" y="16"/>
      <point x="283" y="62"/>
      <point x="283" y="25" type="curve" smooth="yes"/>
      <point x="283" y="-10"/>
      <point x="251" y="-9"/>
      <point x="218" y="-9" type="curve" smooth="yes"/>
      <point x="190" y="-9"/>
      <point x="62" y="-3"/>
    </contour>
  </outline>
</glyph>
<glyph name="_37" format="1">
  <advance width="437"/>
  <outline>
    <contour>
      <point x="15" y="211" type="curve" smooth="yes"/>
      <point x="15" y="321"/>
      <point x="83" y="432"/>
      <point x="207" y="432" type="curve" smooth="yes"/>
      <point x="317" y="432"/>
      <point x="421" y="348"/>
      <point x="421" y="233" type="curve" smooth="yes"/>
      <point x="421" y="227"/>
      <point x="420" y="212"/>
      <point x="419" y="211" type="curve" smooth="yes"/>
      <point x="401" y="202" type="line"/>
      <point x="117" y="202" type="line" smooth="yes"/>
      <point x="114" y="202"/>
      <point x="108" y="195"/>
      <point x="107" y="193" type="curve" smooth="yes"/>
      <point x="107" y="166" type="line" smooth="yes"/>
      <point x="107" y="95"/>
      <point x="158" y="36"/>
      <point x="231" y="36" type="curve" smooth="yes"/>
      <point x="347" y="36"/>
      <point x="346" y="161"/>
      <point x="422" y="161" type="curve"/>
      <point x="422" y="57"/>
      <point x="329" y="-20"/>
      <point x="229" y="-20" type="curve" smooth="yes"/>
      <point x="91" y="-20"/>
      <point x="15" y="83"/>
    </contour>
    <contour>
      <point x="117" y="257" type="curve"/>
      <point x="177" y="248"/>
      <point x="204" y="247"/>
      <point x="259" y="247" type="curve" smooth="yes"/>
      <point x="266" y="247"/>
      <point x="302" y="248"/>
      <point x="309" y="248" type="curve"/>
      <point x="322" y="250"/>
      <point x="319" y="269"/>
      <point x="319" y="276" type="curve" smooth="yes"/>
      <point x="319" y="326"/>
      <point x="269" y="377"/>
      <point x="218" y="377" type="curve" smooth="yes"/>
      <point x="159" y="377"/>
      <point x="107" y="332"/>
      <point x="107" y="270" type="curve" smooth="yes"/>
      <point x="107" y="264"/>
      <point x="109" y="261"/>
    </contour>
  </outline>
</glyph>
<glyph name="_38" format="1">
  <advance width="574"/>
  <outline>
    <contour>
      <point x="17" y="23" type="line" smooth="yes"/>
      <point x="17" y="57"/>
      <point x="90" y="28"/>
      <point x="90" y="64" type="curve" smooth="yes"/>
      <point x="90" y="312" type="line" smooth="yes"/>
      <point x="90" y="365"/>
      <point x="15" y="339"/>
      <point x="15" y="390" type="curve" smooth="yes"/>
      <point x="15" y="403"/>
      <point x="16" y="413"/>
      <point x="35" y="413" type="curve" smooth="yes"/>
      <point x="182" y="413" type="line"/>
      <point x="182" y="409"/>
      <point x="183" y="357"/>
      <point x="205" y="357" type="curve" smooth="yes"/>
      <point x="218" y="357"/>
      <point x="283" y="431"/>
      <point x="357" y="431" type="curve" smooth="yes"/>
      <point x="392" y="431"/>
      <point x="480" y="396"/>
      <point x="480" y="349" type="curve" smooth="yes"/>
      <point x="480" y="83" type="line" smooth="yes"/>
      <point x="480" y="42"/>
      <point x="568" y="59"/>
      <point x="558" y="18" type="curve" smooth="yes"/>
      <point x="557" y="14"/>
      <point x="544" y="1"/>
      <point x="540" y="0" type="curve" smooth="yes"/>
      <point x="515" y="-2"/>
      <point x="399" y="-8"/>
      <point x="375" y="-9" type="curve" smooth="yes"/>
      <point x="354" y="-9" type="line" smooth="yes"/>
      <point x="336" y="-9"/>
      <point x="310" y="-4"/>
      <point x="310" y="18" type="curve" smooth="yes"/>
      <point x="310" y="51"/>
      <point x="372" y="41"/>
      <point x="384" y="83" type="curve"/>
      <point x="384" y="98"/>
      <point x="385" y="168"/>
      <point x="385" y="184" type="curve" smooth="yes"/>
      <point x="385" y="239"/>
      <point x="408" y="377"/>
      <point x="315" y="377" type="curve" smooth="yes"/>
      <point x="198" y="377"/>
      <point x="190" y="231"/>
      <point x="190" y="147" type="curve" smooth="yes"/>
      <point x="190" y="136"/>
      <point x="191" y="84"/>
      <point x="191" y="73" type="curve"/>
      <point x="196" y="42"/>
      <point x="243" y="39"/>
      <point x="265" y="37" type="curve"/>
      <point x="265" y="34"/>
      <point x="268" y="21"/>
      <point x="268" y="18" type="curve" smooth="yes"/>
      <point x="268" y="-7"/>
      <point x="259" y="-9"/>
      <point x="228" y="-9" type="curve" smooth="yes"/>
      <point x="26" y="-9" type="line" smooth="yes"/>
      <point x="25" y="-9"/>
      <point x="19" y="10"/>
      <point x="17" y="18" type="curve" smooth="yes"/>
    </contour>
  </outline>
</glyph>
<glyph name="_39" format="1">
  <advance width="380"/>
  <outline>
    <contour>
      <point x="103.125" y="362" type="line"/>
      <point x="25.125" y="362" type="line" smooth="yes"/>
      <point x="13.125" y="362"/>
      <point x="15.125" y="392"/>
      <point x="15.125" y="395" type="curve" smooth="yes"/>
      <point x="15.125" y="436"/>
      <point x="85.125" y="453"/>
      <point x="107.125" y="486" type="curve" smooth="yes"/>
      <point x="110.125" y="491"/>
      <point x="136.125" y="542"/>
      <point x="144.125" y="560" type="curve" smooth="yes"/>
      <point x="150.125" y="572"/>
      <point x="151.125" y="606"/>
      <point x="171.125" y="606" type="curve" smooth="yes"/>
      <point x="184.125" y="606"/>
      <point x="199.125" y="592"/>
      <point x="199.125" y="578" type="curve" smooth="yes"/>
      <point x="199.125" y="431" type="line"/>
      <point x="336.125" y="431" type="line" smooth="yes"/>
      <point x="349.125" y="431"/>
      <point x="347.125" y="406"/>
      <point x="347.125" y="403" type="curve" smooth="yes"/>
      <point x="347.125" y="331"/>
      <point x="241.125" y="391"/>
      <point x="208.125" y="358" type="curve" smooth="yes"/>
      <point x="199.125" y="349" type="line"/>
      <point x="199.125" y="110" type="line" smooth="yes"/>
      <point x="199.125" y="82"/>
      <point x="224.125" y="45"/>
      <point x="254.125" y="45" type="curve" smooth="yes"/>
      <point x="340.125" y="45"/>
      <point x="298.125" y="202"/>
      <point x="341.125" y="202" type="curve" smooth="yes"/>
      <point x="350.125" y="202"/>
      <point x="356.125" y="198"/>
      <point x="364.125" y="193" type="curve"/>
      <point x="364.125" y="187"/>
      <point x="365.125" y="162"/>
      <point x="365.125" y="156" type="curve" smooth="yes"/>
      <point x="365.125" y="51"/>
      <point x="325.125" y="-19"/>
      <point x="212.125" y="-19" type="curve" smooth="yes"/>
      <point x="173.125" y="-19"/>
      <point x="103.125" y="20"/>
      <point x="103.125" y="64" type="curve" smooth="yes"/>
    </contour>
  </outline>
</glyph>
<glyph name="_40" format="1">
  <advance width="472"/>
  <outline>
    <contour>
      <point x="15" y="213" type="curve" smooth="yes"/>
      <point x="15" y="346"/>
      <point x="112" y="441"/>
      <point x="243" y="441" type="curve" smooth="yes"/>
      <point x="372" y="441"/>
      <point x="457" y="349"/>
      <point x="457" y="220" type="curve" smooth="yes"/>
      <point x="457" y="93"/>
      <point x="355" y="-10"/>
      <point x="228" y="-10" type="curve" smooth="yes"/>
      <point x="102" y="-10"/>
      <point x="15" y="91"/>
    </contour>
    <contour>
      <point x="116" y="206" type="curve" smooth="yes"/>
      <point x="116" y="120"/>
      <point x="142" y="45"/>
      <point x="236" y="45" type="curve" smooth="yes"/>
      <point x="337" y="45"/>
      <point x="355" y="147"/>
      <point x="355" y="230" type="curve" smooth="yes"/>
      <point x="355" y="312"/>
      <point x="331" y="386"/>
      <point x="238" y="386" type="curve" smooth="yes"/>
      <point x="131" y="386"/>
      <point x="116" y="301"/>
    </contour>
  </outline>
</glyph>
<glyph name="_41" format="1">
  <advance width="307"/>
  <outline>
    <contour>
      <point x="15.0234" y="41" type="curve" smooth="yes"/>
      <point x="15.0234" y="91"/>
      <point x="90.0234" y="60"/>
      <point x="108.023" y="101" type="curve"/>
      <point x="115.023" y="242"/>
      <point x="118.023" y="319"/>
      <point x="118.023" y="442" type="curve" smooth="yes"/>
      <point x="118.023" y="646"/>
      <point x="25.0234" y="553"/>
      <point x="25.0234" y="610" type="curve" smooth="yes"/>
      <point x="25.0234" y="616"/>
      <point x="23.0234" y="632"/>
      <point x="35.0234" y="633" type="curve" smooth="yes"/>
      <point x="181.023" y="642" type="line"/>
      <point x="209.023" y="633" type="line"/>
      <point x="209.023" y="110" type="line" smooth="yes"/>
      <point x="209.023" y="54"/>
      <point x="292.023" y="102"/>
      <point x="292.023" y="51" type="curve" smooth="yes"/>
      <point x="292.023" y="20"/>
      <point x="266.023" y="20"/>
      <point x="236.023" y="18" type="curve" smooth="yes"/>
      <point x="232.023" y="18"/>
      <point x="159.023" y="17"/>
      <point x="131.023" y="17" type="curve" smooth="yes"/>
      <point x="115.023" y="17"/>
      <point x="41.0234" y="18"/>
      <point x="25.0234" y="18" type="curve"/>
      <point x="14.0234" y="21"/>
      <point x="15.0234" y="33"/>
    </contour>
  </outline>
</glyph>
<glyph name="_42" format="1">
  <advance width="465"/>
  <outline>
    <contour>
      <point x="15" y="119" type="curve" smooth="yes"/>
      <point x="15" y="235"/>
      <point x="155" y="262"/>
      <point x="245" y="284" type="curve" smooth="yes"/>
      <point x="268" y="290"/>
      <point x="264" y="312"/>
      <point x="264" y="328" type="curve" smooth="yes"/>
      <point x="264" y="373"/>
      <point x="242" y="404"/>
      <point x="195" y="404" type="curve" smooth="yes"/>
      <point x="179" y="404"/>
      <point x="110" y="398"/>
      <point x="116" y="367" type="curve" smooth="yes"/>
      <point x="117" y="364"/>
      <point x="134" y="343"/>
      <point x="135" y="339" type="curve" smooth="yes"/>
      <point x="135" y="339"/>
      <point x="136" y="327"/>
      <point x="136" y="322" type="curve" smooth="yes"/>
      <point x="136" y="286"/>
      <point x="115" y="265"/>
      <point x="78" y="265" type="curve" smooth="yes"/>
      <point x="40" y="265"/>
      <point x="33" y="301"/>
      <point x="33" y="332" type="curve" smooth="yes"/>
      <point x="33" y="424"/>
      <point x="129" y="451"/>
      <point x="205" y="451" type="curve" smooth="yes"/>
      <point x="269" y="451"/>
      <point x="355" y="432"/>
      <point x="355" y="349" type="curve" smooth="yes"/>
      <point x="355" y="147" type="line" smooth="yes"/>
      <point x="355" y="118"/>
      <point x="358" y="105"/>
      <point x="385" y="105" type="curve" smooth="yes"/>
      <point x="389" y="105"/>
      <point x="400" y="109"/>
      <point x="401" y="110" type="curve" smooth="yes"/>
      <point x="419" y="184" type="line"/>
      <point x="450" y="184" type="line"/>
      <point x="450" y="119"/>
      <point x="428" y="36"/>
      <point x="347" y="36" type="curve" smooth="yes"/>
      <point x="307" y="36"/>
      <point x="290" y="61"/>
      <point x="263" y="92" type="curve" smooth="yes"/>
      <point x="258" y="92" type="line" smooth="yes"/>
      <point x="233" y="92"/>
      <point x="173" y="27"/>
      <point x="116" y="27" type="curve" smooth="yes"/>
      <point x="61" y="27"/>
      <point x="15" y="63"/>
    </contour>
    <contour>
      <point x="98" y="133" type="curve" smooth="yes"/>
      <point x="98" y="90"/>
      <point x="130" y="81"/>
      <point x="165" y="81" type="curve" smooth="yes"/>
      <point x="239" y="81"/>
      <point x="267" y="172"/>
      <point x="267" y="233" type="curve"/>
      <point x="213" y="233"/>
      <point x="98" y="205"/>
    </contour>
  </outline>
</glyph>
<glyph name="_44" format="1">
  <advance width="371"/>
  <outline>
    <contour>
      <point x="15" y="184" type="curve" smooth="yes"/>
      <point x="15" y="276"/>
      <point x="85" y="359"/>
      <point x="181" y="359" type="curve" smooth="yes"/>
      <point x="277" y="359"/>
      <point x="356" y="283"/>
      <point x="356" y="183" type="curve" smooth="yes"/>
      <point x="356" y="172"/>
      <point x="353" y="156"/>
      <point x="337" y="156" type="curve" smooth="yes"/>
      <point x="117" y="156" type="line" smooth="yes"/>
      <point x="104" y="156"/>
      <point x="107" y="132"/>
      <point x="107" y="128" type="curve" smooth="yes"/>
      <point x="107" y="72"/>
      <point x="156" y="36"/>
      <point x="208" y="36" type="curve" smooth="yes"/>
      <point x="282" y="36"/>
      <point x="286" y="115"/>
      <point x="350" y="115" type="curve"/>
      <point x="350" y="35"/>
      <point x="277" y="-10"/>
      <point x="204" y="-10" type="curve" smooth="yes"/>
      <point x="89" y="-10"/>
      <point x="15" y="68"/>
    </contour>
    <contour>
      <point x="107" y="234" type="curve" smooth="yes"/>
      <point x="107" y="229"/>
      <point x="105" y="211"/>
      <point x="117" y="211" type="curve" smooth="yes"/>
      <point x="276" y="211" type="line"/>
      <point x="276" y="263"/>
      <point x="244" y="312"/>
      <point x="185" y="312" type="curve" smooth="yes"/>
      <point x="147" y="312"/>
      <point x="107" y="272"/>
    </contour>
  </outline>
</glyph>
<glyph name="_45" format="1">
  <advance width="400"/>
  <outline>
    <contour>
      <point x="15" y="71" type="curve" smooth="yes"/>
      <point x="15" y="125"/>
      <point x="36" y="145"/>
      <point x="80" y="174" type="curve"/>
      <point x="80" y="184" type="line"/>
      <point x="44" y="196"/>
      <point x="15" y="217"/>
      <point x="15" y="257" type="curve" smooth="yes"/>
      <point x="15" y="332"/>
      <point x="100" y="349"/>
      <point x="158" y="349" type="curve" smooth="yes"/>
      <point x="331" y="349"/>
      <point x="307" y="205"/>
      <point x="309" y="64" type="curve"/>
      <point x="312" y="56"/>
      <point x="320" y="36"/>
      <point x="332" y="36" type="curve" smooth="yes"/>
      <point x="369" y="36"/>
      <point x="348" y="91"/>
      <point x="373" y="101" type="curve"/>
      <point x="389" y="99"/>
      <point x="384" y="66"/>
      <point x="384" y="63" type="curve" smooth="yes"/>
      <point x="384" y="8"/>
      <point x="362" y="-10"/>
      <point x="310" y="-10" type="curve" smooth="yes"/>
      <point x="267" y="-10"/>
      <point x="255" y="25"/>
      <point x="218" y="37" type="curve"/>
      <point x="184" y="8"/>
      <point x="152" y="-10"/>
      <point x="107" y="-10" type="curve" smooth="yes"/>
      <point x="58" y="-10"/>
      <point x="15" y="20"/>
    </contour>
    <contour>
      <point x="106" y="95" type="curve" smooth="yes"/>
      <point x="106" y="66"/>
      <point x="109" y="36"/>
      <point x="144" y="36" type="curve" smooth="yes"/>
      <point x="196" y="36"/>
      <point x="227" y="88"/>
      <point x="227" y="134" type="curve" smooth="yes"/>
      <point x="227" y="155"/>
      <point x="220" y="157"/>
      <point x="200" y="157" type="curve" smooth="yes"/>
      <point x="162" y="157"/>
      <point x="106" y="137"/>
    </contour>
    <contour>
      <point x="117" y="234" type="curve" smooth="yes"/>
      <point x="117" y="229" type="line" smooth="yes"/>
      <point x="115" y="224"/>
      <point x="109" y="198"/>
      <point x="107" y="193" type="curve"/>
      <point x="110" y="193"/>
      <point x="123" y="192"/>
      <point x="126" y="192" type="curve" smooth="yes"/>
      <point x="160" y="192"/>
      <point x="227" y="185"/>
      <point x="227" y="233" type="curve" smooth="yes"/>
      <point x="227" y="284"/>
      <point x="195" y="304"/>
      <point x="149" y="304" type="curve" smooth="yes"/>
      <point x="144" y="304"/>
      <point x="121" y="303"/>
      <point x="117" y="303" type="curve"/>
      <point x="107" y="299"/>
      <point x="107" y="293"/>
      <point x="107" y="285" type="curve" smooth="yes"/>
      <point x="107" y="268"/>
      <point x="117" y="252"/>
    </contour>
  </outline>
</glyph>
<glyph name="_46" format="1">
  <advance width="326"/>
  <outline>
    <contour>
      <point x="15" y="321" type="curve" smooth="yes"/>
      <point x="15" y="353"/>
      <point x="91" y="388"/>
      <point x="108" y="422" type="curve" smooth="yes"/>
      <point x="113" y="432"/>
      <point x="132" y="476"/>
      <point x="135" y="486" type="curve"/>
      <point x="138" y="489"/>
      <point x="150" y="496"/>
      <point x="154" y="496" type="curve" smooth="yes"/>
      <point x="158" y="496"/>
      <point x="168" y="489"/>
      <point x="168" y="486" type="curve" smooth="yes"/>
      <point x="168" y="367" type="line" smooth="yes"/>
      <point x="168" y="340"/>
      <point x="283" y="365"/>
      <point x="283" y="321" type="curve" smooth="yes"/>
      <point x="283" y="310"/>
      <point x="279" y="289"/>
      <point x="264" y="289" type="curve" smooth="yes"/>
      <point x="181" y="289" type="line"/>
      <point x="172" y="275" type="line"/>
      <point x="172" y="273"/>
      <point x="171" y="231"/>
      <point x="171" y="216" type="curve" smooth="yes"/>
      <point x="171" y="180"/>
      <point x="148" y="45"/>
      <point x="219" y="45" type="curve" smooth="yes"/>
      <point x="279" y="45"/>
      <point x="242" y="148"/>
      <point x="291" y="148" type="curve" smooth="yes"/>
      <point x="312" y="148"/>
      <point x="311" y="132"/>
      <point x="311" y="115" type="curve" smooth="yes"/>
      <point x="311" y="43"/>
      <point x="271" y="-10"/>
      <point x="200" y="-10" type="curve" smooth="yes"/>
      <point x="171" y="-10"/>
      <point x="94" y="0"/>
      <point x="94" y="46" type="curve" smooth="yes"/>
      <point x="94" y="275" type="line" smooth="yes"/>
      <point x="94" y="299"/>
      <point x="15" y="278"/>
    </contour>
  </outline>
</glyph>
<glyph name="_47" format="1">
  <advance width="371"/>
  <outline>
    <contour>
      <point x="144" y="340" type="line" smooth="yes"/>
      <point x="154.92" y="340"/>
      <point x="162" y="296.875"/>
      <point x="162" y="284" type="curve"/>
      <point x="164" y="284"/>
      <point x="170" y="283"/>
      <point x="171" y="283" type="curve" smooth="yes"/>
      <point x="194" y="283"/>
      <point x="222" y="349"/>
      <point x="282" y="349" type="curve" smooth="yes"/>
      <point x="326" y="349"/>
      <point x="356" y="312"/>
      <point x="356" y="271" type="curve" smooth="yes"/>
      <point x="356" y="233"/>
      <point x="342" y="220"/>
      <point x="304" y="220" type="curve" smooth="yes"/>
      <point x="283" y="220"/>
      <point x="263" y="225"/>
      <point x="263" y="252" type="curve" smooth="yes"/>
      <point x="263" y="257" type="line"/>
      <point x="264" y="260"/>
      <point x="272" y="282"/>
      <point x="272" y="284" type="curve" smooth="yes"/>
      <point x="272" y="296"/>
      <point x="253" y="295"/>
      <point x="248" y="295" type="curve" smooth="yes"/>
      <point x="174" y="295"/>
      <point x="171" y="154"/>
      <point x="171" y="110" type="curve" smooth="yes"/>
      <point x="171" y="55" type="line"/>
      <point x="186" y="31"/>
      <point x="229" y="37"/>
      <point x="236" y="9" type="curve" smooth="yes"/>
      <point x="237" y="5"/>
      <point x="230" y="-7"/>
      <point x="227" y="-9" type="curve"/>
      <point x="203" y="-11"/>
      <point x="94" y="-17"/>
      <point x="71" y="-18" type="curve" smooth="yes"/>
      <point x="55" y="-18" type="line" smooth="yes"/>
      <point x="37" y="-18"/>
      <point x="23" y="-16"/>
      <point x="23" y="5" type="curve" smooth="yes"/>
      <point x="23" y="38"/>
      <point x="90" y="11"/>
      <point x="90" y="126" type="curve" smooth="yes"/>
      <point x="90" y="183"/>
      <point x="88" y="212"/>
      <point x="80" y="275" type="curve"/>
      <point x="67" y="300"/>
      <point x="15" y="287"/>
      <point x="15" y="322" type="curve" smooth="yes"/>
      <point x="15" y="333"/>
      <point x="17" y="340"/>
      <point x="34" y="340" type="curve" smooth="yes"/>
    </contour>
  </outline>
</glyph>
<glyph name="_48" format="1">
  <advance width="243"/>
  <outline>
    <contour>
      <point x="15" y="4" type="curve" smooth="yes"/>
      <point x="15" y="33"/>
      <point x="80" y="21"/>
      <point x="80" y="46" type="curve" smooth="yes"/>
      <point x="80" y="257" type="line" smooth="yes"/>
      <point x="80" y="296"/>
      <point x="15" y="276"/>
      <point x="15" y="312" type="curve" smooth="yes"/>
      <point x="15" y="318"/>
      <point x="15" y="330"/>
      <point x="25" y="330" type="curve" smooth="yes"/>
      <point x="153" y="330" type="line"/>
      <point x="154" y="293"/>
      <point x="161" y="120"/>
      <point x="162" y="83" type="curve" smooth="yes"/>
      <point x="164" y="32"/>
      <point x="228" y="37"/>
      <point x="228" y="-1" type="curve" smooth="yes"/>
      <point x="228" y="-16"/>
      <point x="221" y="-18"/>
      <point x="199" y="-18" type="curve" smooth="yes"/>
      <point x="34" y="-18" type="line" smooth="yes"/>
      <point x="24" y="-18"/>
      <point x="15" y="-5"/>
    </contour>
    <contour>
      <point x="69" y="455" type="curve" smooth="yes"/>
      <point x="69" y="475"/>
      <point x="91" y="496"/>
      <point x="112" y="496" type="curve" smooth="yes"/>
      <point x="137" y="496"/>
      <point x="162" y="464"/>
      <point x="162" y="440" type="curve" smooth="yes"/>
      <point x="162" y="420"/>
      <point x="132" y="404"/>
      <point x="116" y="404" type="curve" smooth="yes"/>
      <point x="86" y="404"/>
      <point x="69" y="429"/>
    </contour>
  </outline>
</glyph>
<glyph name="_49" format="1">
  <advance width="352"/>
  <outline>
    <contour>
      <point x="16" y="101" type="curve"/>
      <point x="15" y="109"/>
      <point x="15" y="148"/>
      <point x="15" y="156" type="curve" smooth="yes"/>
      <point x="15" y="264"/>
      <point x="77" y="340"/>
      <point x="190" y="340" type="curve" smooth="yes"/>
      <point x="251" y="340"/>
      <point x="329" y="315"/>
      <point x="329" y="240" type="curve" smooth="yes"/>
      <point x="329" y="215"/>
      <point x="317" y="183"/>
      <point x="287" y="183" type="curve" smooth="yes"/>
      <point x="261" y="183"/>
      <point x="235" y="201"/>
      <point x="235" y="229" type="curve" smooth="yes"/>
      <point x="235" y="245"/>
      <point x="246" y="255"/>
      <point x="246" y="271" type="curve" smooth="yes"/>
      <point x="246" y="294"/>
      <point x="226" y="303"/>
      <point x="204" y="303" type="curve" smooth="yes"/>
      <point x="118" y="303"/>
      <point x="97" y="242"/>
      <point x="97" y="167" type="curve" smooth="yes"/>
      <point x="97" y="91"/>
      <point x="116" y="27"/>
      <point x="199" y="27" type="curve" smooth="yes"/>
      <point x="292" y="27"/>
      <point x="275" y="120"/>
      <point x="318" y="120" type="curve" smooth="yes"/>
      <point x="334" y="120"/>
      <point x="337" y="111"/>
      <point x="337" y="97" type="curve" smooth="yes"/>
      <point x="337" y="20"/>
      <point x="256" y="-28"/>
      <point x="186" y="-28" type="curve" smooth="yes"/>
      <point x="103" y="-28"/>
      <point x="47" y="29"/>
    </contour>
  </outline>
</glyph>
<glyph name="_50" format="1">
  <advance width="362"/>
  <outline>
    <contour>
      <point x="15" y="161" type="curve" smooth="yes"/>
      <point x="15" y="248"/>
      <point x="68" y="349"/>
      <point x="172" y="349" type="curve" smooth="yes"/>
      <point x="262" y="349"/>
      <point x="347" y="282"/>
      <point x="347" y="188" type="curve" smooth="yes"/>
      <point x="347" y="187"/>
      <point x="349" y="151"/>
      <point x="337" y="151" type="curve" smooth="yes"/>
      <point x="107" y="151" type="line" smooth="yes"/>
      <point x="96" y="151"/>
      <point x="97" y="122"/>
      <point x="97" y="119" type="curve" smooth="yes"/>
      <point x="97" y="60"/>
      <point x="140" y="18"/>
      <point x="199" y="18" type="curve" smooth="yes"/>
      <point x="261" y="18"/>
      <point x="277" y="101"/>
      <point x="323" y="101" type="curve" smooth="yes"/>
      <point x="330" y="101"/>
      <point x="344" y="98"/>
      <point x="346" y="92" type="curve" smooth="yes"/>
      <point x="362" y="28"/>
      <point x="237" y="-19"/>
      <point x="198" y="-19" type="curve" smooth="yes"/>
      <point x="85" y="-19"/>
      <point x="15" y="48"/>
    </contour>
    <contour>
      <point x="98" y="220" type="curve" smooth="yes"/>
      <point x="98" y="208"/>
      <point x="114" y="193"/>
      <point x="126" y="193" type="curve" smooth="yes"/>
      <point x="263" y="193" type="line" smooth="yes"/>
      <point x="276" y="193"/>
      <point x="273" y="217"/>
      <point x="273" y="221" type="curve" smooth="yes"/>
      <point x="273" y="267"/>
      <point x="237" y="303"/>
      <point x="190" y="303" type="curve" smooth="yes"/>
      <point x="148" y="303"/>
      <point x="98" y="265"/>
    </contour>
  </outline>
</glyph>
<glyph name="_58" format="1">
  <advance width="1023"/>
  <outline>
    <contour>
      <point x="15.3262" y="0" type="curve" smooth="yes"/>
      <point x="15.3262" y="77"/>
      <point x="95.3262" y="24"/>
      <point x="130.326" y="71" type="curve" smooth="yes"/>
      <point x="178.326" y="135"/>
      <point x="159.326" y="382"/>
      <point x="159.326" y="481" type="curve" smooth="yes"/>
      <point x="159.326" y="502"/>
      <point x="158.326" y="601"/>
      <point x="158.326" y="622" type="curve"/>
      <point x="144.326" y="721"/>
      <point x="25.3262" y="594"/>
      <point x="25.3262" y="763" type="curve"/>
      <point x="395.326" y="763" type="line"/>
      <point x="483.326" y="410" type="line"/>
      <point x="497.326" y="382" type="line"/>
      <point x="512.326" y="391"/>
      <point x="520.326" y="409"/>
      <point x="526.326" y="424" type="curve" smooth="yes"/>
      <point x="543.326" y="471"/>
      <point x="622.326" y="688"/>
      <point x="639.326" y="735" type="curve" smooth="yes"/>
      <point x="640.326" y="738"/>
      <point x="650.326" y="748"/>
      <point x="653.326" y="749" type="curve" smooth="yes"/>
      <point x="716.326" y="770"/>
      <point x="777.326" y="764"/>
      <point x="844.326" y="764" type="curve" smooth="yes"/>
      <point x="862.326" y="764"/>
      <point x="946.326" y="764"/>
      <point x="964.326" y="763" type="curve"/>
      <point x="1009.33" y="782"/>
      <point x="1008.33" y="744"/>
      <point x="1008.33" y="724" type="curve" smooth="yes"/>
      <point x="1008.33" y="632"/>
      <point x="900.326" y="707"/>
      <point x="865.326" y="636" type="curve" smooth="yes"/>
      <point x="808.326" y="522"/>
      <point x="835.326" y="345"/>
      <point x="835.326" y="219" type="curve" smooth="yes"/>
      <point x="835.326" y="197"/>
      <point x="836.326" y="93"/>
      <point x="837.326" y="71" type="curve"/>
      <point x="861.326" y="34"/>
      <point x="932.326" y="31"/>
      <point x="964.326" y="28" type="curve"/>
      <point x="964.326" y="-42" type="line"/>
      <point x="540.326" y="-42" type="line" smooth="yes"/>
      <point x="527.326" y="-42"/>
      <point x="525.326" y="-30"/>
      <point x="525.326" y="-22" type="curve" smooth="yes"/>
      <point x="525.326" y="91"/>
      <point x="646.326" y="-2"/>
      <point x="667.326" y="71" type="curve" smooth="yes"/>
      <point x="706.326" y="208"/>
      <point x="696.326" y="360"/>
      <point x="696.326" y="502" type="curve" smooth="yes"/>
      <point x="696.326" y="518"/>
      <point x="696.326" y="592"/>
      <point x="695.326" y="608" type="curve"/>
      <point x="681.326" y="579" type="line"/>
      <point x="483.326" y="-14" type="line" smooth="yes"/>
      <point x="476.326" y="-34"/>
      <point x="457.326" y="-45"/>
      <point x="438.326" y="-45" type="curve" smooth="yes"/>
      <point x="435.326" y="-45"/>
      <point x="427.326" y="-43"/>
      <point x="427.326" y="-42" type="curve" smooth="yes"/>
      <point x="271.326" y="608" type="line"/>
      <point x="257.326" y="594" type="line"/>
      <point x="257.326" y="85" type="line" smooth="yes"/>
      <point x="257.326" y="32"/>
      <point x="358.326" y="65"/>
      <point x="358.326" y="4" type="curve" smooth="yes"/>
      <point x="358.326" y="0"/>
      <point x="362.326" y="-42"/>
      <point x="342.326" y="-42" type="curve" smooth="yes"/>
      <point x="31.3262" y="-42" type="line" smooth="yes"/>
      <point x="11.3262" y="-42"/>
      <point x="15.3262" y="-5"/>
    </contour>
  </outline>
</glyph>
<glyph name="_64" format="1">
  <advance width="593"/>
  <outline>
    <contour>
      <point x="111" y="26" type="curve" smooth="yes"/>
      <point x="74" y="26"/>
      <point x="91" y="-40"/>
      <point x="49" y="-40" type="curve" smooth="yes"/>
      <point x="29" y="-40"/>
      <point x="15" y="-37"/>
      <point x="15" y="-15" type="curve" smooth="yes"/>
      <point x="15" y="0" type="line" smooth="yes"/>
      <point x="17" y="42"/>
      <point x="26" y="239"/>
      <point x="28" y="281" type="curve"/>
      <point x="42" y="293"/>
      <point x="51" y="295"/>
      <point x="66" y="295" type="curve" smooth="yes"/>
      <point x="108" y="295"/>
      <point x="128" y="37"/>
      <point x="335" y="37" type="curve" smooth="yes"/>
      <point x="397" y="37"/>
      <point x="465" y="71"/>
      <point x="465" y="139" type="curve" smooth="yes"/>
      <point x="465" y="319"/>
      <point x="39" y="213"/>
      <point x="39" y="469" type="curve" smooth="yes"/>
      <point x="39" y="602"/>
      <point x="132" y="680"/>
      <point x="266" y="680" type="curve" smooth="yes"/>
      <point x="339" y="680"/>
      <point x="383" y="625"/>
      <point x="450" y="625" type="curve" smooth="yes"/>
      <point x="480" y="625"/>
      <point x="474" y="678"/>
      <point x="513" y="678" type="curve" smooth="yes"/>
      <point x="525" y="678"/>
      <point x="539" y="674"/>
      <point x="539" y="659" type="curve" smooth="yes"/>
      <point x="539" y="652" type="line"/>
      <point x="537" y="617"/>
      <point x="528" y="456"/>
      <point x="526" y="422" type="curve"/>
      <point x="527" y="398"/>
      <point x="516" y="395"/>
      <point x="502" y="395" type="curve" smooth="yes"/>
      <point x="455" y="395"/>
      <point x="398" y="602"/>
      <point x="250" y="602" type="curve" smooth="yes"/>
      <point x="198" y="602"/>
      <point x="142" y="575"/>
      <point x="142" y="517" type="curve" smooth="yes"/>
      <point x="142" y="484"/>
      <point x="159" y="458"/>
      <point x="194" y="447" type="curve" smooth="yes"/>
      <point x="475" y="358" type="line" smooth="yes"/>
      <point x="541" y="337"/>
      <point x="578" y="239"/>
      <point x="578" y="179" type="curve" smooth="yes"/>
      <point x="578" y="48"/>
      <point x="465" y="-52"/>
      <point x="336" y="-52" type="curve" smooth="yes"/>
      <point x="253" y="-52"/>
      <point x="160" y="26"/>
    </contour>
  </outline>
</glyph>
<glyph name="c.alt" format="1">
  <advance width="515"/>
  <outline>
    <contour>
      <point x="436" y="188" type="curve"/>
      <point x="500" y="164" type="line"/>
      <point x="477" y="59"/>
      <point x="388" y="-13"/>
      <point x="273" y="-13" type="curve" smooth="yes"/>
      <point x="135" y="-13"/>
      <point x="15" y="87"/>
      <point x="15" y="242" type="curve" smooth="yes"/>
      <point x="15" y="416"/>
      <point x="110" y="539"/>
      <point x="279" y="539" type="curve" smooth="yes"/>
      <point x="371" y="539"/>
      <point x="488" y="502"/>
      <point x="488" y="390" type="curve" smooth="yes"/>
      <point x="488" y="352"/>
      <point x="470" y="304"/>
      <point x="425" y="304" type="curve" smooth="yes"/>
      <point x="386" y="304"/>
      <point x="347" y="331"/>
      <point x="347" y="373" type="curve" smooth="yes"/>
      <point x="347" y="397"/>
      <point x="363" y="412"/>
      <point x="363" y="436" type="curve" smooth="yes"/>
      <point x="363" y="471"/>
      <point x="333" y="483"/>
      <point x="300" y="483" type="curve" smooth="yes"/>
      <point x="171" y="483"/>
      <point x="139" y="393"/>
      <point x="139" y="280" type="curve" smooth="yes"/>
      <point x="139" y="166"/>
      <point x="168" y="70"/>
      <point x="292" y="70" type="curve" smooth="yes"/>
      <point x="398" y="70"/>
      <point x="421" y="149"/>
    </contour>
  </outline>
</glyph>
<glyph name="g.alt" format="1">
  <advance width="611"/>
  <outline>
    <contour>
      <point x="51.0" y="-38.0"/>
      <point x="72.0" y="25.0"/>
      <point x="126.0" y="43.0" type="curve"/>
      <point x="109.0" y="47.0"/>
      <point x="69.0" y="71.0"/>
      <point x="69.0" y="116.0" type="curve" smooth="yes"/>
      <point x="69.0" y="190.0"/>
      <point x="130.0" y="223.0"/>
      <point x="130.0" y="223.0" type="curve"/>
      <point x="78.0" y="251.0"/>
      <point x="49.0" y="301.0"/>
      <point x="49.0" y="364.0" type="curve" smooth="yes"/>
      <point x="49.0" y="461.0"/>
      <point x="142.0" y="538.0"/>
      <point x="271.0" y="538.0" type="curve" smooth="yes"/>
      <point x="342.0" y="538.0"/>
      <point x="408.0" y="520.0"/>
      <point x="439.0" y="479.0" type="curve"/>
      <point x="439.0" y="479.0"/>
      <point x="523.0" y="535.0"/>
      <point x="570.0" y="535.0" type="curve" smooth="yes"/>
      <point x="629.0" y="535.0"/>
      <point x="656.0" y="486.0"/>
      <point x="656.0" y="451.0" type="curve" smooth="yes"/>
      <point x="656.0" y="420.0"/>
      <point x="636.0" y="391.0"/>
      <point x="600.0" y="391.0" type="curve" smooth="yes"/>
      <point x="569.0" y="391.0"/>
      <point x="546.0" y="415.0"/>
      <point x="546.0" y="444.0" type="curve" smooth="yes"/>
      <point x="546.0" y="453.0"/>
      <point x="548.0" y="463.0"/>
      <point x="553.0" y="472.0" type="curve"/>
      <point x="523.0" y="468.0"/>
      <point x="471.0" y="431.0"/>
      <point x="471.0" y="431.0" type="curve"/>
      <point x="482.0" y="418.0"/>
      <point x="492.0" y="387.0"/>
      <point x="492.0" y="352.0" type="curve" smooth="yes"/>
      <point x="492.0" y="280.0"/>
      <point x="446.0" y="190.0"/>
      <point x="284.0" y="190.0" type="curve" smooth="yes"/>
      <point x="236.0" y="190.0"/>
      <point x="176.0" y="184.224719101"/>
      <point x="176.0" y="140.0" type="curve" smooth="yes"/>
      <point x="176.0" y="125.0"/>
      <point x="187.0" y="115.0"/>
      <point x="215.0" y="115.0" type="curve" smooth="yes"/>
      <point x="361.0" y="115.0" type="line" smooth="yes"/>
      <point x="498.0" y="115.0"/>
      <point x="538.0" y="36.0"/>
      <point x="538.0" y="-24.0" type="curve" smooth="yes"/>
      <point x="538.0" y="-167.0"/>
      <point x="420.0" y="-223.0"/>
      <point x="290.0" y="-223.0" type="curve" smooth="yes"/>
      <point x="176.0" y="-223.0"/>
      <point x="51.0" y="-206.0"/>
      <point x="51.0" y="-86.0" type="curve" smooth="yes"/>
    </contour>
    <contour>
      <point x="147.0" y="-98.0"/>
      <point x="152.0" y="-127.0"/>
      <point x="289.0" y="-127.0" type="curve" smooth="yes"/>
      <point x="417.598937422" y="-127.0"/>
      <point x="432.0" y="-74.9896794354"/>
      <point x="432.0" y="-44.0" type="curve" smooth="yes"/>
      <point x="432.0" y="10.0"/>
      <point x="379.0" y="18.0"/>
      <point x="333.0" y="18.0" type="curve" smooth="yes"/>
      <point x="291.0" y="18.0"/>
      <point x="258.0" y="18.0"/>
      <point x="198.0" y="18.0" type="curve"/>
      <point x="174.0" y="6.0"/>
      <point x="147.0" y="-21.0"/>
      <point x="147.0" y="-54.0" type="curve" smooth="yes"/>
    </contour>
    <contour>
      <point x="365.0" y="261.0"/>
      <point x="377.0" y="319.0"/>
      <point x="377.0" y="365.0" type="curve" smooth="yes"/>
      <point x="377.0" y="414.0"/>
      <point x="360.0" y="465.0"/>
      <point x="272.0" y="465.0" type="curve" smooth="yes"/>
      <point x="195.0" y="465.0"/>
      <point x="167.0" y="414.0"/>
      <point x="167.0" y="365.0" type="curve" smooth="yes"/>
      <point x="167.0" y="319.0"/>
      <point x="189.0" y="261.0"/>
      <point x="272.0" y="261.0" type="curve" smooth="yes"/>
    </contour>
  </outline>
</glyph>
<glyph name="s.alt" format="1">
  <advance width="537"/>
  <outline>
    <contour>
      <point x="344.042533945" y="57.0"/>
      <point x="373.0" y="88.3127059394"/>
      <point x="373.0" y="128.0" type="curve" smooth="yes"/>
      <point x="373.0" y="191.0"/>
      <point x="298.0" y="199.0"/>
      <point x="224.0" y="225.0" type="curve" smooth="yes"/>
      <point x="134.0" y="256.0"/>
      <point x="59.0" y="282.0"/>
      <point x="59.0" y="390.0" type="curve" smooth="yes"/>
      <point x="59.0" y="498.0"/>
      <point x="171.0" y="537.0"/>
      <point x="245.0" y="537.0" type="curve" smooth="yes"/>
      <point x="303.0" y="537.0"/>
      <point x="372.0" y="508.0"/>
      <point x="387.0" y="467.0" type="curve"/>
      <point x="397.0" y="524.0" type="line"/>
      <point x="472.0" y="524.0" type="line"/>
      <point x="472.0" y="340.0" type="line"/>
      <point x="395.0" y="340.0" type="line"/>
      <point x="378.0" y="419.0"/>
      <point x="337.0" y="464.0"/>
      <point x="255.0" y="464.0" type="curve" smooth="yes"/>
      <point x="213.0" y="464.0"/>
      <point x="177.0" y="446.0"/>
      <point x="177.0" y="411.0" type="curve" smooth="yes"/>
      <point x="177.0" y="366.0"/>
      <point x="215.0" y="359.0"/>
      <point x="290.0" y="336.0" type="curve" smooth="yes"/>
      <point x="381.0" y="308.0"/>
      <point x="496.0" y="281.0"/>
      <point x="496.0" y="152.0" type="curve" smooth="yes"/>
      <point x="496.0" y="36.0"/>
      <point x="415.0" y="-15.0"/>
      <point x="322.0" y="-15.0" type="curve" smooth="yes"/>
      <point x="252.0" y="-15.0"/>
      <point x="187.0" y="14.0"/>
      <point x="154.0" y="64.0" type="curve"/>
      <point x="150.0" y="0.0" type="line"/>
      <point x="73.0" y="0.0" type="line"/>
      <point x="73.0" y="198.0" type="line"/>
      <point x="164.0" y="198.0" type="line"/>
      <point x="176.0" y="101.0"/>
      <point x="241.0" y="57.0"/>
      <point x="297.0" y="57.0" type="curve" smooth="yes"/>
    </contour>
  </outline>
</glyph>
